<?xml version="1.0" standalone="no"?>
<!DOCTYPE svg PUBLIC "-//W3C//DTD SVG 20010904//EN"
 "http://www.w3.org/TR/2001/REC-SVG-20010904/DTD/svg10.dtd">
<svg version="1.0" xmlns="http://www.w3.org/2000/svg"
 width="500.000000pt" height="500.000000pt" viewBox="0 0 500.000000 500.000000"
 preserveAspectRatio="xMidYMid meet">

<g transform="translate(0.000000,500.000000) scale(0.100000,-0.100000)"
fill="#000000" stroke="none">
<path d="M2590 4449 c-63 -4 -204 -10 -312 -14 l-198 -8 -2 -251 -3 -251 -155
-3 c-85 -1 -178 2 -206 8 -88 18 -88 19 -94 274 l-5 221 -60 8 c-33 4 -180 10
-327 13 l-268 6 0 -546 0 -546 373 0 c204 0 378 -4 385 -9 11 -6 11 -28 2
-112 -25 -236 -49 -498 -79 -859 -6 -69 -16 -174 -21 -235 -6 -60 -15 -157
-20 -215 -5 -58 -14 -152 -20 -210 -5 -58 -17 -186 -25 -285 -9 -99 -20 -213
-25 -253 -6 -40 -10 -93 -10 -117 0 -24 -4 -55 -10 -69 l-10 -26 -365 0 -366
0 -50 -47 c-78 -73 -79 -75 -79 -295 0 -106 4 -199 8 -206 7 -10 361 -12 1738
-10 l1729 3 3 184 c3 220 -3 245 -84 321 l-53 50 -380 0 -381 0 -4 23 c-2 12
-9 74 -16 137 -6 63 -15 156 -21 205 -5 50 -14 146 -20 215 -15 182 -28 325
-39 453 -6 61 -15 157 -20 212 -5 55 -14 147 -19 205 -11 111 -35 373 -52 575
-19 218 -25 330 -18 339 12 14 224 25 522 25 l277 1 0 545 0 545 -305 0 -305
0 -2 -272 -3 -273 -227 -3 -228 -2 0 264 c0 145 -3 271 -6 280 -3 9 -11 15
-18 14 -6 -1 -63 -5 -126 -9z"/>
</g>
</svg>
