<?xml version="1.0" standalone="no"?>
<!DOCTYPE svg PUBLIC "-//W3C//DTD SVG 20010904//EN"
 "http://www.w3.org/TR/2001/REC-SVG-20010904/DTD/svg10.dtd">
<svg version="1.0" xmlns="http://www.w3.org/2000/svg"
 width="500.000000pt" height="500.000000pt" viewBox="0 0 500.000000 500.000000"
 preserveAspectRatio="xMidYMid meet">
<metadata>
Created by potrace 1.16, written by Peter Selinger 2001-2019
</metadata>
<g transform="translate(0.000000,500.000000) scale(0.100000,-0.100000)"
fill="#000000" stroke="none">
<path d="M3100 4428 c-41 -5 -79 -13 -85 -17 -5 -5 -41 -14 -80 -21 -38 -7
-74 -16 -80 -20 -5 -5 -39 -14 -75 -20 -36 -7 -69 -16 -75 -20 -5 -4 -43 -13
-83 -21 -40 -7 -75 -16 -78 -21 -3 -4 -14 -8 -25 -8 -29 0 -23 -22 16 -60 44
-43 49 -98 11 -133 -61 -56 -68 -57 -120 -26 -39 23 -44 36 -48 114 l-3 50
-59 -2 c-32 -1 -73 -9 -90 -17 -17 -8 -55 -18 -84 -22 -28 -3 -52 -10 -52 -14
0 -4 -36 -13 -80 -20 -44 -7 -83 -16 -85 -20 -3 -5 -37 -14 -75 -21 -39 -7
-70 -15 -70 -19 0 -4 -34 -13 -75 -20 -42 -7 -78 -16 -80 -21 -3 -4 -37 -13
-75 -20 -39 -7 -70 -16 -70 -20 0 -4 -17 -10 -39 -14 -51 -8 -65 -35 -57 -111
3 -33 10 -194 15 -359 5 -165 12 -313 16 -329 8 -28 8 -28 67 -23 32 3 64 9
71 15 7 5 44 15 82 22 39 7 75 16 80 20 6 4 46 13 90 20 44 6 85 15 90 20 6 4
42 13 80 20 39 7 75 16 80 20 6 4 46 13 90 20 44 6 85 15 90 20 6 4 44 12 84
19 41 6 80 16 85 20 6 5 27 11 47 14 34 5 35 4 31 -24 -2 -16 -8 -29 -12 -29
-4 0 -13 -31 -20 -70 -7 -38 -17 -70 -21 -70 -4 0 -10 -19 -14 -42 -4 -24 -13
-56 -21 -73 -7 -16 -18 -52 -25 -80 -7 -27 -15 -54 -19 -60 -4 -5 -12 -32 -19
-60 -7 -27 -18 -63 -25 -80 -8 -16 -17 -49 -21 -72 -4 -24 -10 -43 -15 -43 -5
0 -11 -19 -15 -42 -4 -24 -15 -61 -25 -83 -10 -22 -21 -59 -25 -82 -4 -24 -10
-43 -15 -43 -4 0 -14 -29 -21 -65 -7 -36 -16 -65 -19 -65 -4 0 -12 -25 -19
-55 -7 -30 -16 -57 -20 -60 -5 -2 -14 -32 -21 -65 -7 -33 -16 -60 -20 -60 -5
0 -11 -19 -15 -42 -4 -24 -16 -62 -26 -85 -11 -23 -19 -50 -19 -60 0 -10 -6
-30 -14 -45 -8 -15 -20 -52 -27 -83 -7 -30 -15 -55 -19 -55 -4 0 -13 -26 -20
-57 -7 -32 -16 -62 -20 -68 -4 -5 -13 -36 -20 -67 -7 -32 -16 -58 -20 -58 -4
0 -13 -27 -20 -60 -7 -33 -16 -60 -20 -60 -4 0 -13 -29 -20 -65 -7 -36 -16
-65 -20 -65 -5 0 -11 -17 -15 -38 -3 -22 -12 -50 -19 -64 -7 -14 -19 -49 -26
-79 -20 -84 -17 -83 -234 -91 -246 -8 -328 -20 -375 -52 -49 -34 -106 -96
-115 -124 -4 -12 -11 -22 -16 -22 -15 0 -30 -127 -30 -263 l0 -137 1613 2
1612 3 -3 159 c-1 88 -7 165 -11 170 -5 6 -12 25 -15 42 -18 82 -134 185 -225
200 -23 4 -44 11 -47 15 -3 5 -41 9 -85 9 l-79 0 -1 1198 c0 658 -4 1366 -9
1572 l-7 375 -27 50 c-15 28 -33 59 -39 70 -18 29 -94 105 -106 105 -5 0 -14
6 -18 13 -4 7 -23 19 -40 26 -18 8 -33 17 -33 21 0 4 -19 13 -42 19 -24 7 -47
17 -53 21 -8 7 -162 33 -168 29 -1 -1 -36 -6 -77 -11z"/>
</g>
</svg>
