<?xml version="1.0" standalone="no"?>
<!DOCTYPE svg PUBLIC "-//W3C//DTD SVG 20010904//EN"
 "http://www.w3.org/TR/2001/REC-SVG-20010904/DTD/svg10.dtd">
<svg version="1.0" xmlns="http://www.w3.org/2000/svg"
 width="500.000000pt" height="500.000000pt" viewBox="0 0 500.000000 500.000000"
 preserveAspectRatio="xMidYMid meet">
<metadata>
Created by potrace 1.16, written by Peter Selinger 2001-2019
</metadata>
<g transform="translate(0.000000,500.000000) scale(0.100000,-0.100000)"
fill="#000000" stroke="none">
<path d="M2270 4560 l0 -160 -160 0 -160 0 0 -180 0 -180 160 0 160 0 0 -132
0 -133 -67 -80 c-37 -44 -133 -156 -213 -250 -80 -93 -164 -193 -188 -221
l-42 -52 0 -87 0 -87 155 -178 c85 -99 155 -181 155 -183 0 -2 -26 -7 -57 -10
-76 -7 -109 -23 -128 -62 -34 -74 -6 -155 62 -175 21 -6 79 -14 129 -17 l91
-6 -18 -81 c-21 -94 -74 -325 -125 -546 -20 -85 -49 -209 -64 -275 -15 -66
-44 -192 -65 -280 -20 -88 -53 -227 -72 -310 -19 -82 -37 -163 -41 -179 -6
-24 -15 -31 -54 -41 -92 -23 -109 -56 -111 -214 l-2 -116 835 0 835 0 3 84 c6
161 -28 234 -114 247 -24 3 -47 11 -52 18 -10 12 -29 84 -68 251 -31 137 -80
343 -129 545 -57 241 -91 383 -186 785 -28 120 -34 111 79 117 54 3 114 13
134 21 60 25 83 92 57 166 -14 41 -57 62 -136 69 -35 2 -63 7 -63 9 0 2 70 84
155 183 l155 178 0 88 0 87 -72 86 c-40 47 -138 163 -218 256 -80 94 -160 188
-178 210 l-32 40 0 137 0 138 155 0 155 0 0 180 0 180 -155 0 -155 0 0 160 0
160 -175 0 -175 0 0 -160z"/>
</g>
</svg>
