<svg id="svg" xmlns="http://www.w3.org/2000/svg" xmlns:xlink="http://www.w3.org/1999/xlink" width="400" height="400" viewBox="0, 0, 400,400"><g id="svgg"><path id="path0" d="M187.435 37.083 C 141.018 48.823,133.338 112.279,175.673 134.266 C 209.723 151.950,250.031 128.934,252.098 90.625 C 253.968 55.976,220.921 28.613,187.435 37.083 M151.648 144.840 C 146.652 147.610,146.346 154.947,151.068 158.772 C 152.606 160.017,156.381 160.122,200.000 160.122 C 251.642 160.122,249.107 160.339,251.471 155.715 C 253.433 151.879,251.728 146.351,248.069 144.683 C 244.945 143.260,154.233 143.408,151.648 144.840 M167.693 169.258 C 167.415 172.546,167.187 181.950,167.187 190.157 C 167.185 249.699,160.861 287.791,147.396 309.355 C 145.391 312.566,143.750 315.467,143.750 315.800 C 143.750 316.133,169.062 316.406,200.000 316.406 C 230.938 316.406,256.248 316.143,256.245 315.820 C 256.243 315.498,254.307 312.075,251.944 308.213 C 237.760 285.033,233.602 254.954,232.048 164.258 C 232.035 163.493,225.118 163.281,200.115 163.281 L 168.198 163.281 167.693 169.258 M131.488 321.059 C 126.356 324.188,126.534 332.423,131.794 335.238 C 134.827 336.862,265.173 336.862,268.206 335.238 C 273.466 332.423,273.644 324.188,268.512 321.059 C 264.608 318.679,135.392 318.679,131.488 321.059 M116.387 341.602 C 103.865 347.935,105.561 367.495,118.979 371.480 C 124.029 372.980,274.205 373.272,280.077 371.794 C 294.147 368.251,296.507 348.441,283.666 341.662 L 280.223 339.844 200.043 339.844 L 119.862 339.844 116.387 341.602 " stroke="none" fill="#000000" fill-rule="evenodd"></path></g></svg>