<?xml version="1.0" standalone="no"?>
<!DOCTYPE svg PUBLIC "-//W3C//DTD SVG 20010904//EN"
 "http://www.w3.org/TR/2001/REC-SVG-20010904/DTD/svg10.dtd">
<svg version="1.0" xmlns="http://www.w3.org/2000/svg"
 width="500.000000pt" height="500.000000pt" viewBox="0 0 500.000000 500.000000"
 preserveAspectRatio="xMidYMid meet">
<metadata>
Created by potrace 1.16, written by Peter Selinger 2001-2019
</metadata>
<g transform="translate(0.000000,500.000000) scale(0.100000,-0.100000)"
fill="#000000" stroke="none">
<path d="M2470 4303 c-57 -39 -76 -95 -55 -156 l14 -40 -40 -46 c-171 -194
-240 -693 -148 -1071 12 -47 30 -104 40 -127 10 -23 19 -44 19 -47 0 -4 -26
-6 -59 -6 -60 0 -111 -23 -135 -62 -16 -26 4 -69 43 -95 27 -18 48 -23 101
-23 l67 0 -33 -117 c-17 -65 -114 -417 -214 -783 -101 -366 -190 -695 -199
-731 -15 -65 -16 -66 -56 -77 -99 -26 -125 -75 -125 -232 l0 -110 840 0 840 0
0 85 c0 163 -31 231 -117 254 l-39 11 -47 147 c-55 176 -101 334 -337 1163
-55 195 -103 363 -106 373 -5 15 3 17 80 17 94 0 124 8 155 41 32 35 27 72
-14 108 -34 29 -41 31 -115 31 -44 0 -80 2 -80 4 0 2 7 23 16 47 78 220 103
574 56 798 -15 70 -37 47 -145 -146 -32 -56 -62 -105 -67 -108 -5 -3 -18 11
-29 32 l-19 38 109 187 110 187 -40 79 c-21 43 -55 97 -75 121 -34 41 -35 44
-21 71 19 37 19 103 0 140 -29 56 -123 79 -175 43z"/>
</g>
</svg>
