<?xml version="1.0" standalone="no"?>
<!DOCTYPE svg PUBLIC "-//W3C//DTD SVG 20010904//EN"
 "http://www.w3.org/TR/2001/REC-SVG-20010904/DTD/svg10.dtd">
<svg version="1.0" xmlns="http://www.w3.org/2000/svg"
 width="500.000000pt" height="500.000000pt" viewBox="0 0 500.000000 500.000000"
 preserveAspectRatio="xMidYMid meet">
<metadata>
Created by potrace 1.16, written by Peter Selinger 2001-2019
</metadata>
<g transform="translate(0.000000,500.000000) scale(0.100000,-0.100000)"
fill="#000000" stroke="none">
<path d="M2496 4351 c-3 -5 -22 -12 -41 -15 -20 -4 -52 -17 -73 -29 -61 -36
-157 -127 -168 -159 -3 -10 -10 -18 -15 -18 -5 0 -9 -8 -9 -17 0 -10 -8 -31
-18 -48 -14 -25 -17 -56 -17 -193 0 -110 4 -165 11 -170 6 -4 15 -21 18 -39 4
-17 14 -37 22 -44 8 -6 14 -16 14 -22 0 -6 13 -25 30 -42 l29 -30 -52 -1 c-67
-2 -156 -22 -173 -39 -8 -7 -18 -15 -24 -17 -16 -5 -27 -68 -19 -107 14 -69
72 -91 237 -91 l84 0 -7 -47 c-4 -27 -10 -52 -15 -58 -4 -5 -13 -40 -20 -78
-7 -37 -16 -69 -20 -72 -5 -3 -11 -28 -15 -55 -4 -28 -10 -50 -14 -50 -4 0
-14 -33 -21 -72 -7 -40 -16 -77 -20 -83 -5 -5 -11 -31 -15 -57 -4 -27 -11 -48
-15 -48 -4 0 -12 -31 -19 -70 -7 -38 -16 -72 -21 -75 -4 -3 -11 -30 -15 -60
-3 -30 -10 -55 -15 -55 -4 0 -11 -21 -15 -47 -4 -27 -13 -62 -20 -80 -8 -18
-17 -53 -20 -78 -4 -25 -11 -45 -15 -45 -4 0 -11 -25 -15 -55 -3 -30 -10 -57
-15 -60 -4 -3 -14 -37 -20 -75 -6 -39 -16 -70 -20 -70 -5 0 -12 -25 -15 -55
-4 -30 -11 -55 -15 -55 -4 0 -13 -34 -19 -75 -7 -41 -16 -77 -21 -80 -4 -2
-11 -25 -14 -50 -4 -24 -11 -47 -15 -49 -4 -3 -14 -39 -21 -81 -7 -41 -16 -75
-20 -75 -4 0 -11 -25 -15 -55 -3 -30 -10 -55 -15 -55 -4 0 -11 -21 -15 -48 -4
-26 -13 -61 -20 -78 -7 -17 -16 -54 -20 -82 -4 -29 -11 -52 -15 -52 -4 0 -11
-22 -15 -50 -7 -48 -8 -50 -61 -75 -128 -60 -144 -95 -151 -318 l-6 -167 1132
0 1131 0 0 155 c0 85 -4 155 -9 155 -4 0 -11 17 -14 39 -5 41 -43 87 -109 131
-25 16 -38 33 -38 48 0 12 -4 22 -9 22 -6 0 -13 21 -17 47 -3 27 -12 62 -19
78 -6 17 -15 47 -19 69 -4 21 -11 46 -16 55 -10 17 -35 107 -50 181 -6 25 -14
54 -20 65 -5 11 -14 38 -19 60 -6 22 -17 65 -26 95 -8 30 -15 62 -15 72 0 10
-4 18 -9 18 -5 0 -12 20 -15 45 -4 25 -13 57 -21 71 -7 15 -16 49 -20 75 -4
27 -11 51 -16 54 -4 3 -11 28 -15 55 -4 28 -10 50 -14 50 -5 0 -11 22 -15 49
-4 26 -13 60 -20 75 -8 14 -17 46 -21 71 -3 25 -10 45 -14 45 -5 0 -11 24 -15
53 -4 28 -13 65 -20 80 -8 15 -17 48 -21 72 -3 25 -10 45 -15 45 -4 0 -11 23
-15 50 -4 28 -10 50 -14 50 -3 0 -7 6 -8 13 -2 36 -27 137 -33 137 -4 0 -10
19 -14 41 -4 23 -13 56 -20 73 -7 17 -16 52 -20 79 -4 26 -11 47 -15 47 -5 0
-12 25 -15 55 -4 30 -11 55 -15 55 -4 0 -13 28 -20 63 -6 34 -17 65 -23 69
-27 16 14 26 124 30 92 3 123 8 145 23 45 29 63 57 64 98 0 82 -86 128 -247
131 -35 0 -63 3 -63 6 0 3 14 18 30 34 16 16 34 44 40 62 7 19 15 34 20 34 4
0 11 17 15 38 4 20 11 42 17 49 12 15 13 244 0 252 -5 3 -13 25 -17 49 -4 23
-11 42 -15 42 -5 0 -14 15 -20 34 -13 41 -141 173 -176 182 -13 3 -24 10 -24
14 0 5 -18 11 -40 15 -22 4 -42 11 -46 16 -7 12 -211 12 -218 0z"/>
</g>
</svg>
