<?xml version="1.0" standalone="no"?>
<!DOCTYPE svg PUBLIC "-//W3C//DTD SVG 20010904//EN"
 "http://www.w3.org/TR/2001/REC-SVG-20010904/DTD/svg10.dtd">
<svg version="1.0" xmlns="http://www.w3.org/2000/svg"
 width="500.000000pt" height="500.000000pt" viewBox="0 0 500.000000 500.000000"
 preserveAspectRatio="xMidYMid meet">

<g transform="translate(0.000000,500.000000) scale(0.100000,-0.100000)"
fill="#000000" stroke="none">
<path d="M2497 4522 c-10 -11 -17 -35 -17 -59 0 -33 -12 -59 -63 -138 l-64
-96 -69 115 c-38 64 -73 115 -79 113 -5 -2 -30 -44 -55 -95 -25 -50 -48 -94
-51 -97 -4 -3 -46 44 -94 105 -48 61 -89 109 -91 107 -2 -2 16 -129 41 -282
25 -153 45 -282 45 -287 0 -4 7 -8 15 -8 21 0 31 -26 44 -117 26 -182 96 -349
191 -455 l49 -56 -214 -163 -215 -164 3 -55 2 -55 102 -80 c56 -44 102 -82
102 -85 1 -3 -12 -11 -29 -17 -69 -26 -91 -136 -38 -190 26 -26 106 -42 210
-43 26 0 49 -4 52 -8 4 -6 -184 -832 -350 -1541 l-39 -164 -48 -12 c-88 -22
-105 -56 -109 -215 l-3 -105 834 -3 834 -2 -5 113 c-3 67 -11 125 -19 142 -19
39 -58 65 -108 72 -23 3 -43 8 -45 12 -5 8 -406 1693 -406 1705 0 2 49 6 109
9 59 4 120 11 135 16 40 16 68 68 63 119 -5 49 -27 78 -76 98 -20 8 -31 18
-25 23 5 4 48 38 97 75 48 38 92 77 98 87 5 11 9 39 7 62 -3 41 -3 42 -215
205 l-212 164 54 65 c97 118 157 262 185 448 7 44 18 92 26 107 21 40 111 542
102 568 -2 7 -39 -35 -83 -93 -43 -59 -81 -105 -83 -102 -2 2 -23 50 -46 106
-22 56 -45 102 -51 102 -5 1 -41 -52 -80 -116 -38 -64 -75 -117 -80 -117 -11
0 -103 117 -124 157 -7 13 -8 34 -4 50 9 35 5 53 -14 76 -21 23 -75 22 -96 -1z"/>
</g>
</svg>
