<svg id="svg" version="1.1" xmlns="http://www.w3.org/2000/svg" xmlns:xlink="http://www.w3.org/1999/xlink" width="400" height="400" viewBox="0, 0, 400,400"><g id="svgg"><path id="path0" d="M123.442 70.898 C 123.447 108.540,123.935 110.742,133.196 114.949 C 138.042 117.151,261.958 117.151,266.804 114.949 C 276.065 110.742,276.553 108.540,276.558 70.898 L 276.563 39.844 262.109 39.844 L 247.656 39.844 247.656 51.563 L 247.656 63.281 235.938 63.281 L 224.219 63.281 224.219 51.563 L 224.219 39.844 200.000 39.844 L 175.781 39.844 175.781 51.563 L 175.781 63.281 164.063 63.281 L 152.344 63.281 152.344 51.563 L 152.344 39.844 137.891 39.844 L 123.438 39.844 123.442 70.898 M135.400 121.056 C 128.776 125.095,131.371 135.187,139.327 136.330 C 141.115 136.586,169.713 136.691,202.879 136.562 L 263.179 136.328 265.497 134.108 C 269.591 130.185,269.155 123.833,264.600 121.056 C 260.708 118.683,139.292 118.683,135.400 121.056 M151.555 153.711 C 151.518 223.449,145.529 267.363,131.157 303.278 C 128.630 309.593,126.563 315.130,126.563 315.583 C 126.563 316.154,149.052 316.406,200.015 316.406 L 273.467 316.406 272.936 314.258 C 272.645 313.076,270.836 308.242,268.918 303.516 C 254.890 268.950,250.045 236.051,248.694 166.211 L 248.185 139.844 199.874 139.844 L 151.563 139.844 151.555 153.711 M114.375 322.188 C 109.856 326.706,111.064 333.202,116.874 335.629 C 120.758 337.252,279.242 337.252,283.126 335.629 C 288.936 333.202,290.144 326.706,285.625 322.188 L 282.969 319.531 200.000 319.531 L 117.031 319.531 114.375 322.188 M100.981 341.129 C 89.304 346.885,88.503 363.060,99.557 369.894 L 103.393 372.266 199.939 372.266 L 296.484 372.266 300.175 370.096 C 311.475 363.453,310.732 346.717,298.887 341.096 C 294.861 339.185,104.860 339.217,100.981 341.129 " stroke="none" fill="#000000" fill-rule="evenodd"></path></g></svg>