<svg id="svg" version="1.1" xmlns="http://www.w3.org/2000/svg" xmlns:xlink="http://www.w3.org/1999/xlink" width="400" height="400" viewBox="0, 0, 400,400"><g id="svgg"><path id="path0" d="M251.400 36.800 C 251.264 37.020,249.554 37.200,247.600 37.200 C 245.646 37.200,243.936 37.380,243.800 37.600 C 243.664 37.820,242.759 38.000,241.789 38.000 C 240.766 38.000,239.426 38.336,238.600 38.800 C 237.817 39.240,236.562 39.600,235.811 39.600 C 235.061 39.600,234.336 39.780,234.200 40.000 C 234.064 40.220,233.254 40.400,232.400 40.400 C 231.546 40.400,230.736 40.580,230.600 40.800 C 230.464 41.020,229.726 41.200,228.960 41.200 C 228.195 41.200,226.862 41.560,226.000 42.000 C 225.138 42.440,224.075 42.800,223.640 42.800 C 223.204 42.800,222.736 42.980,222.600 43.200 C 222.464 43.420,221.474 43.600,220.400 43.600 C 219.326 43.600,218.336 43.780,218.200 44.000 C 218.064 44.220,217.339 44.400,216.589 44.400 C 215.838 44.400,214.583 44.760,213.800 45.200 C 213.017 45.640,211.877 46.000,211.268 46.000 C 210.659 46.000,209.989 46.162,209.780 46.359 C 209.571 46.556,208.680 46.814,207.800 46.931 C 204.638 47.352,202.179 47.942,201.000 48.563 C 200.340 48.911,199.440 49.212,199.000 49.234 C 197.711 49.296,194.248 51.351,193.750 52.349 C 193.076 53.701,192.541 54.151,192.222 53.635 C 191.873 53.071,181.747 53.039,181.400 53.600 C 181.264 53.820,180.488 54.006,179.676 54.014 C 178.864 54.021,177.480 54.375,176.600 54.800 C 175.720 55.225,174.595 55.579,174.100 55.586 C 173.605 55.594,173.200 55.780,173.200 56.000 C 173.200 56.220,172.300 56.400,171.200 56.400 C 170.100 56.400,169.200 56.580,169.200 56.800 C 169.200 57.020,168.473 57.200,167.584 57.200 C 166.695 57.200,165.262 57.560,164.400 58.000 C 163.538 58.440,162.285 58.800,161.616 58.800 C 160.947 58.800,160.400 58.980,160.400 59.200 C 160.400 59.420,159.511 59.600,158.424 59.600 C 157.337 59.600,156.336 59.780,156.200 60.000 C 156.064 60.220,155.378 60.406,154.676 60.414 C 153.974 60.421,152.680 60.775,151.800 61.200 C 150.920 61.625,149.716 61.979,149.124 61.986 C 148.532 61.994,147.936 62.180,147.800 62.400 C 147.664 62.620,146.854 62.800,146.000 62.800 C 145.146 62.800,144.336 62.980,144.200 63.200 C 144.064 63.420,143.326 63.600,142.560 63.600 C 141.795 63.600,140.462 63.960,139.600 64.400 C 138.738 64.840,137.585 65.200,137.040 65.200 C 136.494 65.200,135.936 65.380,135.800 65.600 C 135.664 65.820,134.764 66.000,133.800 66.000 C 132.836 66.000,131.936 66.180,131.800 66.400 C 131.664 66.620,130.939 66.800,130.189 66.800 C 129.438 66.800,128.183 67.160,127.400 67.600 C 126.617 68.040,125.542 68.400,125.011 68.400 C 124.481 68.400,123.936 68.580,123.800 68.800 C 123.664 69.020,122.764 69.200,121.800 69.200 C 120.836 69.200,119.936 69.380,119.800 69.600 C 119.664 69.820,119.068 70.006,118.476 70.014 C 117.884 70.021,116.680 70.375,115.800 70.800 C 114.920 71.225,113.795 71.579,113.300 71.586 C 112.805 71.594,112.400 71.780,112.400 72.000 C 112.400 72.220,111.680 72.400,110.800 72.400 C 109.920 72.400,109.200 72.580,109.200 72.800 C 109.200 73.020,108.840 73.200,108.400 73.200 C 107.960 73.200,107.600 73.380,107.600 73.600 C 107.600 73.820,107.317 74.000,106.971 74.000 C 106.163 74.000,105.200 74.963,105.200 75.771 C 105.200 76.117,105.064 76.400,104.898 76.400 C 104.731 76.400,104.349 76.985,104.048 77.700 C 103.747 78.415,103.253 79.523,102.950 80.161 C 102.273 81.592,102.221 93.551,102.880 96.600 C 103.118 97.704,103.457 106.483,103.637 116.200 C 104.036 137.740,104.353 145.683,104.833 146.180 C 105.035 146.389,105.200 146.849,105.200 147.201 C 105.200 148.064,107.089 151.810,107.836 152.430 C 110.414 154.569,120.231 155.873,123.105 154.458 C 124.582 153.731,127.868 152.699,129.303 152.512 C 130.129 152.404,130.905 152.155,131.026 151.958 C 131.148 151.761,132.126 151.600,133.200 151.600 C 134.274 151.600,135.264 151.420,135.400 151.200 C 135.536 150.980,136.261 150.800,137.011 150.800 C 137.762 150.800,139.017 150.440,139.800 150.000 C 140.626 149.536,141.966 149.200,142.989 149.200 C 143.959 149.200,144.864 149.020,145.000 148.800 C 145.136 148.580,146.126 148.400,147.200 148.400 C 148.274 148.400,149.251 148.241,149.371 148.046 C 149.492 147.852,150.403 147.570,151.397 147.421 C 152.391 147.272,153.698 146.893,154.302 146.578 C 154.906 146.263,155.974 146.004,156.676 146.002 C 157.378 146.001,158.064 145.820,158.200 145.600 C 158.336 145.380,159.236 145.200,160.200 145.200 C 161.164 145.200,162.064 145.020,162.200 144.800 C 162.336 144.580,163.074 144.400,163.840 144.400 C 164.605 144.400,165.938 144.040,166.800 143.600 C 167.662 143.160,169.085 142.800,169.960 142.800 C 170.836 142.800,171.664 142.620,171.800 142.400 C 171.936 142.180,173.016 142.000,174.200 142.000 C 175.384 142.000,176.451 141.841,176.571 141.646 C 176.692 141.452,177.645 141.164,178.690 141.007 C 179.735 140.851,181.078 140.470,181.675 140.161 C 182.272 139.853,183.453 139.600,184.300 139.600 C 185.147 139.600,186.076 139.375,186.364 139.100 C 186.652 138.825,186.508 139.358,186.044 140.284 C 185.580 141.210,185.200 142.415,185.200 142.960 C 185.200 143.506,185.020 144.064,184.800 144.200 C 184.580 144.336,184.400 145.157,184.400 146.024 C 184.400 146.891,184.220 147.600,184.000 147.600 C 183.780 147.600,183.594 148.005,183.586 148.500 C 183.579 148.995,183.225 150.120,182.800 151.000 C 182.375 151.880,182.021 152.904,182.014 153.276 C 182.006 153.648,181.820 154.064,181.600 154.200 C 181.380 154.336,181.200 155.069,181.200 155.829 C 181.200 156.589,181.044 157.523,180.854 157.905 C 180.663 158.287,180.303 159.185,180.054 159.900 C 179.804 160.615,179.396 161.785,179.146 162.500 C 178.897 163.215,178.537 164.113,178.346 164.495 C 178.156 164.877,178.000 165.734,178.000 166.400 C 178.000 167.066,177.844 167.923,177.654 168.305 C 177.463 168.687,177.086 169.630,176.816 170.400 C 176.547 171.170,175.982 172.697,175.563 173.794 C 175.143 174.891,174.800 176.286,174.800 176.894 C 174.800 177.502,174.620 178.000,174.400 178.000 C 174.180 178.000,174.000 178.367,174.000 178.816 C 174.000 179.265,173.640 180.338,173.200 181.200 C 172.760 182.062,172.400 183.215,172.400 183.760 C 172.400 184.306,172.220 184.864,172.000 185.000 C 171.780 185.136,171.600 185.957,171.600 186.824 C 171.600 187.691,171.420 188.400,171.200 188.400 C 170.980 188.400,170.800 188.769,170.800 189.220 C 170.800 189.671,170.537 190.549,170.215 191.172 C 169.329 192.884,168.412 195.689,168.406 196.705 C 168.403 197.203,168.243 197.923,168.052 198.305 C 166.904 200.596,166.000 202.924,166.000 203.587 C 166.000 204.008,165.820 204.464,165.600 204.600 C 165.380 204.736,165.200 205.546,165.200 206.400 C 165.200 207.254,165.020 208.064,164.800 208.200 C 164.580 208.336,164.400 208.791,164.400 209.211 C 164.400 209.632,164.040 210.617,163.600 211.400 C 163.160 212.183,162.800 213.258,162.800 213.789 C 162.800 214.319,162.620 214.864,162.400 215.000 C 162.180 215.136,162.000 215.867,162.000 216.624 C 162.000 217.381,161.820 218.000,161.600 218.000 C 161.380 218.000,161.200 218.367,161.200 218.816 C 161.200 219.265,160.840 220.338,160.400 221.200 C 159.960 222.062,159.600 223.125,159.600 223.560 C 159.600 223.996,159.420 224.464,159.200 224.600 C 158.980 224.736,158.800 225.379,158.800 226.029 C 158.800 226.679,158.643 227.523,158.452 227.905 C 157.220 230.365,156.400 232.555,156.400 233.387 C 156.400 233.918,156.220 234.464,156.000 234.600 C 155.780 234.736,155.600 235.557,155.600 236.424 C 155.600 237.291,155.420 238.000,155.200 238.000 C 154.980 238.000,154.800 238.355,154.800 238.789 C 154.800 239.472,153.907 241.781,152.748 244.095 C 152.557 244.477,152.400 245.422,152.400 246.195 C 152.400 246.968,152.220 247.600,152.000 247.600 C 151.780 247.600,151.600 247.967,151.600 248.416 C 151.600 248.865,151.240 249.938,150.800 250.800 C 150.360 251.662,150.000 252.815,150.000 253.360 C 150.000 253.906,149.820 254.464,149.600 254.600 C 149.380 254.736,149.200 255.379,149.200 256.029 C 149.200 256.679,149.026 257.523,148.814 257.905 C 147.901 259.548,146.800 262.418,146.800 263.154 C 146.800 263.594,146.620 264.064,146.400 264.200 C 146.180 264.336,146.000 265.056,146.000 265.800 C 146.000 266.544,145.820 267.264,145.600 267.400 C 145.380 267.536,145.200 267.991,145.200 268.411 C 145.200 268.832,144.840 269.817,144.400 270.600 C 143.960 271.383,143.600 272.458,143.600 272.989 C 143.600 273.519,143.420 274.064,143.200 274.200 C 142.980 274.336,142.800 274.979,142.800 275.629 C 142.800 276.279,142.643 277.123,142.452 277.505 C 141.220 279.965,140.400 282.155,140.400 282.987 C 140.400 283.518,140.220 284.064,140.000 284.200 C 139.780 284.336,139.600 284.966,139.600 285.600 C 139.600 286.234,139.420 286.864,139.200 287.000 C 138.980 287.136,138.794 287.552,138.786 287.924 C 138.779 288.296,138.425 289.320,138.000 290.200 C 137.575 291.080,137.221 292.194,137.214 292.676 C 137.206 293.158,137.020 293.664,136.800 293.800 C 136.580 293.936,136.400 294.757,136.400 295.624 C 136.400 296.491,136.220 297.200,136.000 297.200 C 135.780 297.200,135.600 297.555,135.600 297.988 C 135.600 298.421,135.240 299.417,134.800 300.200 C 134.360 300.983,134.000 302.058,134.000 302.589 C 134.000 303.119,133.820 303.664,133.600 303.800 C 133.380 303.936,133.200 304.579,133.200 305.229 C 133.200 305.879,133.043 306.723,132.852 307.105 C 131.733 309.339,130.800 311.715,130.800 312.331 C 130.800 312.721,130.634 313.211,130.431 313.420 C 130.228 313.629,130.003 314.340,129.931 315.000 L 129.800 316.200 115.520 316.600 C 105.082 316.892,101.105 317.135,100.740 317.500 C 100.416 317.824,99.008 318.000,96.744 318.000 C 94.821 318.000,93.136 318.180,93.000 318.400 C 92.864 318.620,92.238 318.800,91.610 318.800 C 90.503 318.800,85.652 321.105,84.369 322.241 C 84.021 322.549,83.526 322.800,83.269 322.800 C 83.011 322.800,82.800 322.980,82.800 323.200 C 82.800 323.420,82.566 323.600,82.280 323.600 C 81.541 323.600,74.500 331.189,73.465 333.102 C 70.617 338.364,70.000 339.657,70.000 340.365 C 70.000 340.798,69.820 341.264,69.600 341.400 C 69.380 341.536,69.200 342.616,69.200 343.800 C 69.200 344.984,69.020 346.064,68.800 346.200 C 68.544 346.358,68.413 351.598,68.436 360.724 L 68.472 375.000 69.548 376.988 C 70.354 378.477,71.123 379.246,72.612 380.052 L 74.600 381.128 205.232 381.164 L 335.864 381.200 337.768 380.236 C 340.320 378.944,341.423 377.841,342.631 375.373 L 343.644 373.302 343.432 364.551 C 343.084 350.150,342.696 344.776,341.900 343.320 C 341.515 342.616,341.200 341.668,341.200 341.214 C 341.200 340.761,341.039 340.077,340.842 339.695 C 340.645 339.313,339.880 337.740,339.142 336.200 C 336.525 330.739,331.361 324.899,327.156 322.644 C 320.911 319.296,319.855 318.800,318.967 318.800 C 318.435 318.800,318.000 318.620,318.000 318.400 C 318.000 318.180,317.301 318.000,316.446 318.000 C 315.591 318.000,314.376 317.731,313.746 317.402 C 313.002 317.014,311.446 316.804,309.309 316.802 L 306.019 316.800 305.809 220.100 C 305.564 107.171,305.341 75.181,304.791 74.631 C 304.576 74.416,304.400 73.474,304.400 72.538 C 304.400 70.951,303.981 69.825,301.070 63.600 C 300.607 62.610,299.547 60.775,298.714 59.522 C 297.881 58.269,297.200 57.075,297.200 56.868 C 297.200 56.662,296.525 55.870,295.700 55.108 C 294.875 54.346,294.008 53.392,293.773 52.988 C 293.539 52.584,293.016 52.061,292.612 51.827 C 292.208 51.592,291.254 50.725,290.492 49.900 C 289.730 49.075,288.913 48.400,288.675 48.400 C 288.438 48.400,287.784 47.967,287.222 47.437 C 285.871 46.165,277.864 41.811,275.000 40.792 C 273.599 40.293,272.252 39.741,270.289 38.859 C 269.238 38.386,267.854 38.000,267.213 38.000 C 266.572 38.000,265.936 37.820,265.800 37.600 C 265.664 37.380,264.224 37.200,262.600 37.200 C 260.976 37.200,259.536 37.020,259.400 36.800 C 259.264 36.579,257.470 36.400,255.400 36.400 C 253.330 36.400,251.536 36.579,251.400 36.800 M263.627 47.172 C 269.956 48.793,274.027 50.551,279.200 53.895 C 289.337 60.449,294.742 69.174,295.618 80.400 C 296.134 87.010,296.707 181.619,296.764 269.657 C 296.797 320.202,296.860 325.538,297.433 325.757 C 297.781 325.891,300.256 326.000,302.933 326.000 C 318.931 326.000,329.622 333.456,332.772 346.809 C 333.700 350.744,334.191 370.757,333.379 371.577 C 333.084 371.875,294.884 371.971,205.179 371.901 L 77.400 371.800 77.403 361.400 C 77.408 344.611,78.753 340.355,86.348 333.098 C 92.511 327.210,97.133 326.281,122.936 325.744 C 132.821 325.538,136.200 325.343,136.588 324.955 C 136.871 324.672,138.222 320.966,139.588 316.720 C 140.955 312.474,142.311 308.370,142.600 307.600 C 142.890 306.830,144.324 302.420,145.787 297.800 C 147.251 293.180,148.688 288.770,148.980 288.000 C 149.273 287.230,149.827 285.520,150.212 284.200 C 150.597 282.880,151.054 281.440,151.227 281.000 C 151.399 280.560,152.568 276.960,153.824 273.000 C 156.608 264.217,158.354 258.865,158.781 257.800 C 158.958 257.360,159.603 255.380,160.215 253.400 C 160.826 251.420,162.289 246.830,163.465 243.200 C 164.641 239.570,166.791 232.910,168.242 228.400 C 169.694 223.890,171.117 219.570,171.405 218.800 C 171.694 218.030,172.598 215.240,173.415 212.600 C 174.232 209.960,175.662 205.460,176.593 202.600 C 177.524 199.740,179.320 194.160,180.584 190.200 C 181.849 186.240,183.287 181.740,183.781 180.200 C 184.274 178.660,185.007 176.320,185.409 175.000 C 185.811 173.680,186.542 171.340,187.032 169.800 C 187.523 168.260,188.685 164.570,189.614 161.600 C 190.543 158.630,191.701 154.940,192.188 153.400 C 192.675 151.860,193.390 149.520,193.778 148.200 C 194.500 145.747,195.132 143.684,195.924 141.200 C 200.365 127.263,200.458 125.688,196.761 126.975 C 195.793 127.312,194.517 127.591,193.926 127.594 C 193.335 127.597,192.345 127.797,191.726 128.039 C 191.107 128.280,189.700 128.632,188.600 128.821 C 187.500 129.010,185.520 129.433,184.200 129.761 C 182.880 130.088,180.609 130.621,179.153 130.946 C 177.698 131.270,175.268 131.828,173.753 132.186 C 172.239 132.543,169.740 133.113,168.200 133.453 C 166.660 133.793,164.680 134.263,163.800 134.498 C 162.920 134.733,161.480 135.066,160.600 135.237 C 159.720 135.409,157.830 135.840,156.400 136.196 C 154.970 136.551,153.019 137.010,152.065 137.216 C 151.110 137.421,149.670 137.764,148.865 137.978 C 148.059 138.191,145.420 138.829,143.000 139.395 C 140.580 139.961,137.941 140.601,137.135 140.818 C 136.330 141.034,134.890 141.379,133.935 141.584 C 132.981 141.790,131.030 142.247,129.600 142.600 C 128.170 142.953,126.280 143.400,125.400 143.592 C 124.520 143.785,122.040 144.411,119.889 144.985 C 113.052 146.807,113.630 150.092,112.405 102.400 C 111.853 80.883,111.695 82.065,115.256 81.059 C 116.655 80.663,118.610 80.110,119.600 79.829 C 122.527 78.999,125.953 78.067,130.000 76.999 C 132.090 76.447,134.430 75.825,135.200 75.617 C 135.970 75.409,137.680 74.953,139.000 74.604 C 140.320 74.256,142.234 73.707,143.254 73.385 C 144.273 73.063,145.500 72.800,145.980 72.800 C 146.460 72.800,147.198 72.615,147.621 72.389 C 148.043 72.163,149.156 71.818,150.094 71.622 C 151.727 71.281,159.650 69.248,166.000 67.539 C 167.650 67.095,169.727 66.602,170.615 66.443 C 171.503 66.283,172.436 66.025,172.688 65.869 C 172.940 65.713,173.924 65.414,174.873 65.205 C 175.823 64.995,177.770 64.536,179.200 64.186 C 189.357 61.693,189.413 61.709,188.993 67.000 C 188.099 78.244,202.114 81.159,206.392 70.619 C 207.578 67.698,206.914 65.525,203.754 61.984 C 200.814 58.689,200.904 58.514,206.200 57.181 C 208.620 56.572,211.680 55.781,213.000 55.423 C 214.320 55.065,216.480 54.495,217.800 54.157 C 219.120 53.818,221.190 53.276,222.400 52.952 C 223.610 52.627,225.230 52.205,226.000 52.013 C 230.577 50.871,232.823 50.291,234.600 49.791 C 236.390 49.287,238.933 48.676,247.600 46.669 C 252.128 45.620,258.326 45.815,263.627 47.172 " stroke="none" fill="#0a0a0a" fill-rule="evenodd"></path><path id="path1" d="M247.600 46.669 C 238.933 48.676,236.390 49.287,234.600 49.791 C 232.823 50.291,230.577 50.871,226.000 52.013 C 225.230 52.205,223.610 52.627,222.400 52.952 C 221.190 53.276,219.120 53.818,217.800 54.157 C 216.480 54.495,214.320 55.065,213.000 55.423 C 211.680 55.781,208.620 56.572,206.200 57.181 C 200.904 58.514,200.814 58.689,203.754 61.984 C 206.914 65.525,207.578 67.698,206.392 70.619 C 202.114 81.159,188.099 78.244,188.993 67.000 C 189.413 61.709,189.357 61.693,179.200 64.186 C 177.770 64.536,175.823 64.995,174.873 65.205 C 173.924 65.414,172.940 65.713,172.688 65.869 C 172.436 66.025,171.503 66.283,170.615 66.443 C 169.727 66.602,167.650 67.095,166.000 67.539 C 159.650 69.248,151.727 71.281,150.094 71.622 C 149.156 71.818,148.043 72.163,147.621 72.389 C 147.198 72.615,146.460 72.800,145.980 72.800 C 145.500 72.800,144.273 73.063,143.254 73.385 C 142.234 73.707,140.320 74.256,139.000 74.604 C 137.680 74.953,135.970 75.409,135.200 75.617 C 134.430 75.825,132.090 76.447,130.000 76.999 C 125.953 78.067,122.527 78.999,119.600 79.829 C 118.610 80.110,116.655 80.663,115.256 81.059 C 111.695 82.065,111.853 80.883,112.405 102.400 C 113.630 150.092,113.052 146.807,119.889 144.985 C 122.040 144.411,124.520 143.785,125.400 143.592 C 126.280 143.400,128.170 142.953,129.600 142.600 C 131.030 142.247,132.981 141.790,133.935 141.584 C 134.890 141.379,136.330 141.034,137.135 140.818 C 137.941 140.601,140.580 139.961,143.000 139.395 C 145.420 138.829,148.059 138.191,148.865 137.978 C 149.670 137.764,151.110 137.421,152.065 137.216 C 153.019 137.010,154.970 136.551,156.400 136.196 C 157.830 135.840,159.720 135.409,160.600 135.237 C 161.480 135.066,162.920 134.733,163.800 134.498 C 164.680 134.263,166.660 133.793,168.200 133.453 C 169.740 133.113,172.239 132.543,173.753 132.186 C 175.268 131.828,177.698 131.270,179.153 130.946 C 180.609 130.621,182.880 130.088,184.200 129.761 C 185.520 129.433,187.500 129.010,188.600 128.821 C 189.700 128.632,191.107 128.280,191.726 128.039 C 192.345 127.797,193.335 127.597,193.926 127.594 C 194.517 127.591,195.793 127.312,196.761 126.975 C 200.458 125.688,200.365 127.263,195.924 141.200 C 195.132 143.684,194.500 145.747,193.778 148.200 C 193.390 149.520,192.675 151.860,192.188 153.400 C 191.701 154.940,190.543 158.630,189.614 161.600 C 188.685 164.570,187.523 168.260,187.032 169.800 C 186.542 171.340,185.811 173.680,185.409 175.000 C 185.007 176.320,184.274 178.660,183.781 180.200 C 183.287 181.740,181.849 186.240,180.584 190.200 C 179.320 194.160,177.524 199.740,176.593 202.600 C 175.662 205.460,174.232 209.960,173.415 212.600 C 172.598 215.240,171.694 218.030,171.405 218.800 C 171.117 219.570,169.694 223.890,168.242 228.400 C 166.791 232.910,164.641 239.570,163.465 243.200 C 162.289 246.830,160.826 251.420,160.215 253.400 C 159.603 255.380,158.958 257.360,158.781 257.800 C 158.354 258.865,156.608 264.217,153.824 273.000 C 152.568 276.960,151.399 280.560,151.227 281.000 C 151.054 281.440,150.597 282.880,150.212 284.200 C 149.827 285.520,149.273 287.230,148.980 288.000 C 148.688 288.770,147.251 293.180,145.787 297.800 C 144.324 302.420,142.890 306.830,142.600 307.600 C 142.311 308.370,140.955 312.474,139.588 316.720 C 138.222 320.966,136.871 324.672,136.588 324.955 C 136.200 325.343,132.821 325.538,122.936 325.744 C 97.133 326.281,92.511 327.210,86.348 333.098 C 78.753 340.355,77.408 344.611,77.403 361.400 L 77.400 371.800 205.179 371.901 C 294.884 371.971,333.084 371.875,333.379 371.577 C 334.191 370.757,333.700 350.744,332.772 346.809 C 329.622 333.456,318.931 326.000,302.933 326.000 C 300.256 326.000,297.781 325.891,297.433 325.757 C 296.860 325.538,296.797 320.202,296.764 269.657 C 296.707 181.619,296.134 87.010,295.618 80.400 C 294.742 69.174,289.337 60.449,279.200 53.895 C 274.027 50.551,269.956 48.793,263.627 47.172 C 258.326 45.815,252.128 45.620,247.600 46.669 " stroke="none" fill="#fbfbfb" fill-rule="evenodd"></path></g></svg>