<svg id="svg" version="1.1" xmlns="http://www.w3.org/2000/svg" xmlns:xlink="http://www.w3.org/1999/xlink" width="400" height="400" viewBox="0, 0, 400,400"><g id="svgg"><path id="path0" d="M197.400 43.587 C 196.520 44.019,195.215 44.379,194.500 44.386 C 193.785 44.394,193.200 44.580,193.200 44.800 C 193.200 45.020,192.685 45.200,192.056 45.200 C 190.851 45.200,186.000 47.496,186.000 48.067 C 186.000 48.250,185.640 48.400,185.200 48.400 C 184.760 48.400,184.400 48.580,184.400 48.800 C 184.400 49.020,184.165 49.200,183.878 49.200 C 182.286 49.200,170.800 60.367,170.800 61.915 C 170.800 62.113,170.420 62.619,169.956 63.038 C 168.909 63.984,166.800 68.093,166.800 69.189 C 166.800 69.635,166.620 70.000,166.400 70.000 C 166.180 70.000,166.000 70.355,166.000 70.789 C 166.000 71.223,165.655 72.348,165.233 73.289 C 162.902 78.488,162.995 102.504,165.363 107.000 C 165.711 107.660,165.996 108.479,165.998 108.820 C 165.999 109.161,166.215 109.655,166.479 109.919 C 167.086 110.526,165.841 111.568,164.487 111.587 C 162.522 111.615,156.318 115.466,154.950 117.508 C 152.385 121.337,152.287 121.749,152.266 128.775 C 152.253 133.518,152.380 135.393,152.724 135.508 C 152.986 135.595,153.200 136.012,153.200 136.433 C 153.200 136.855,153.380 137.200,153.600 137.200 C 153.820 137.200,154.000 137.472,154.000 137.803 C 154.000 140.101,162.609 146.000,165.963 146.000 C 166.837 146.000,167.664 146.180,167.800 146.400 C 167.937 146.621,169.737 146.800,171.824 146.800 C 175.542 146.800,176.922 147.536,175.200 148.600 C 174.980 148.736,174.800 149.636,174.800 150.600 C 174.800 151.564,174.620 152.464,174.400 152.600 C 174.180 152.736,174.000 153.294,174.000 153.840 C 174.000 154.385,173.640 155.538,173.200 156.400 C 172.760 157.262,172.400 158.595,172.400 159.360 C 172.400 160.126,172.220 160.864,172.000 161.000 C 171.780 161.136,171.599 161.642,171.598 162.124 C 171.596 162.606,171.344 163.480,171.038 164.067 C 170.732 164.654,170.357 165.868,170.206 166.765 C 170.054 167.662,169.766 168.497,169.565 168.622 C 169.364 168.746,169.200 169.726,169.200 170.800 C 169.200 171.874,169.020 172.864,168.800 173.000 C 168.580 173.136,168.400 173.681,168.400 174.211 C 168.400 174.742,168.040 175.817,167.600 176.600 C 167.160 177.383,166.800 178.728,166.800 179.589 C 166.800 180.449,166.620 181.264,166.400 181.400 C 166.180 181.536,165.994 182.132,165.986 182.724 C 165.979 183.316,165.625 184.520,165.200 185.400 C 164.775 186.280,164.421 187.574,164.414 188.276 C 164.406 188.978,164.220 189.664,164.000 189.800 C 163.780 189.936,163.600 190.746,163.600 191.600 C 163.600 192.454,163.420 193.264,163.200 193.400 C 162.980 193.536,162.800 194.094,162.800 194.640 C 162.800 195.185,162.440 196.338,162.000 197.200 C 161.560 198.062,161.200 199.495,161.200 200.384 C 161.200 201.273,161.020 202.000,160.800 202.000 C 160.580 202.000,160.400 202.547,160.400 203.216 C 160.400 203.885,160.040 205.138,159.600 206.000 C 159.160 206.862,158.800 208.195,158.800 208.960 C 158.800 209.726,158.620 210.464,158.400 210.600 C 158.180 210.736,158.000 211.636,158.000 212.600 C 158.000 213.564,157.820 214.464,157.600 214.600 C 157.380 214.736,157.200 215.204,157.200 215.640 C 157.200 216.075,156.840 217.138,156.400 218.000 C 155.960 218.862,155.600 220.195,155.600 220.960 C 155.600 221.726,155.420 222.464,155.200 222.600 C 154.980 222.736,154.794 223.242,154.786 223.724 C 154.779 224.206,154.425 225.320,154.000 226.200 C 153.575 227.080,153.221 228.464,153.214 229.276 C 153.206 230.088,153.020 230.864,152.800 231.000 C 152.580 231.136,152.394 231.912,152.386 232.724 C 152.378 233.536,152.114 234.650,151.800 235.200 C 151.486 235.750,151.221 236.560,151.212 237.000 C 151.203 237.440,150.926 238.316,150.598 238.946 C 150.269 239.576,150.000 240.870,150.000 241.822 C 150.000 242.774,149.820 243.664,149.600 243.800 C 149.380 243.936,149.194 244.352,149.186 244.724 C 149.179 245.096,148.825 246.120,148.400 247.000 C 147.975 247.880,147.621 249.174,147.614 249.876 C 147.606 250.578,147.420 251.264,147.200 251.400 C 146.980 251.536,146.799 252.222,146.798 252.924 C 146.796 253.626,146.544 254.680,146.238 255.267 C 145.932 255.854,145.557 257.068,145.406 257.965 C 145.254 258.862,144.966 259.697,144.765 259.822 C 144.564 259.946,144.400 261.027,144.400 262.224 C 144.400 263.421,144.220 264.400,144.000 264.400 C 143.780 264.400,143.600 264.935,143.600 265.588 C 143.600 266.241,143.240 267.417,142.800 268.200 C 142.360 268.983,142.000 270.238,142.000 270.989 C 142.000 271.739,141.820 272.464,141.600 272.600 C 141.380 272.736,141.199 273.332,141.198 273.924 C 141.196 274.516,140.924 275.519,140.594 276.153 C 140.263 276.787,139.881 278.006,139.744 278.862 C 139.607 279.718,139.339 280.514,139.147 280.632 C 138.956 280.751,138.800 281.636,138.800 282.600 C 138.800 283.564,138.620 284.464,138.400 284.600 C 138.180 284.736,138.000 285.294,138.000 285.840 C 138.000 286.385,137.640 287.538,137.200 288.400 C 136.760 289.262,136.400 290.685,136.400 291.560 C 136.400 292.436,136.220 293.264,136.000 293.400 C 135.780 293.536,135.594 294.132,135.586 294.724 C 135.579 295.316,135.225 296.520,134.800 297.400 C 134.375 298.280,134.021 299.484,134.014 300.076 C 134.006 300.668,133.820 301.264,133.600 301.400 C 133.380 301.536,133.200 302.436,133.200 303.400 C 133.200 304.364,133.020 305.264,132.800 305.400 C 132.580 305.536,132.400 306.081,132.400 306.611 C 132.400 307.142,132.040 308.217,131.600 309.000 C 131.132 309.834,130.800 311.166,130.800 312.212 C 130.800 313.195,130.620 314.000,130.400 314.000 C 130.180 314.000,130.000 314.535,130.000 315.188 C 130.000 315.841,129.640 317.017,129.200 317.800 C 128.760 318.583,128.396 319.804,128.391 320.512 C 128.379 322.320,127.452 323.246,123.966 324.935 C 119.951 326.879,116.365 330.143,114.980 333.112 C 114.393 334.371,113.400 336.480,112.773 337.800 C 111.371 340.752,111.244 342.210,110.961 358.542 L 110.747 370.884 111.783 373.001 C 112.961 375.410,113.320 375.764,115.885 377.063 L 117.736 378.000 209.768 377.964 L 301.800 377.928 303.800 376.852 C 305.405 375.990,306.055 375.305,307.089 373.389 L 308.378 371.000 308.375 357.400 C 308.373 344.781,308.317 343.685,307.600 342.200 C 307.175 341.320,306.821 340.026,306.814 339.324 C 306.806 338.622,306.620 337.936,306.400 337.800 C 306.180 337.664,306.000 337.239,306.000 336.855 C 306.000 335.737,304.018 332.072,302.965 331.244 C 302.434 330.826,302.000 330.314,302.000 330.105 C 302.000 329.604,298.268 326.424,296.440 325.367 C 294.887 324.469,293.217 321.956,293.207 320.500 C 293.203 320.005,293.020 319.600,292.800 319.600 C 292.580 319.600,292.400 318.711,292.400 317.624 C 292.400 316.537,292.245 315.551,292.055 315.434 C 291.865 315.317,291.477 314.361,291.193 313.310 C 290.908 312.260,290.545 311.220,290.385 311.000 C 290.226 310.780,289.996 309.970,289.876 309.200 C 289.458 306.518,288.931 304.592,288.267 303.320 C 287.900 302.616,287.600 301.591,287.600 301.043 C 287.600 300.496,287.420 299.936,287.200 299.800 C 286.980 299.664,286.800 298.877,286.800 298.052 C 286.800 297.226,286.440 295.805,286.000 294.894 C 285.560 293.984,285.200 292.870,285.200 292.419 C 285.200 291.969,285.037 291.600,284.839 291.600 C 284.640 291.600,284.387 290.745,284.277 289.700 C 283.992 286.993,283.438 284.798,282.667 283.320 C 282.300 282.616,282.000 281.591,282.000 281.043 C 282.000 280.496,281.820 279.936,281.600 279.800 C 281.380 279.664,281.200 279.016,281.200 278.360 C 281.200 277.705,280.840 276.462,280.400 275.600 C 279.960 274.738,279.600 273.675,279.600 273.240 C 279.600 272.804,279.420 272.336,279.200 272.200 C 278.980 272.064,278.800 271.074,278.800 270.000 C 278.800 268.926,278.620 267.936,278.400 267.800 C 278.180 267.664,277.994 267.068,277.986 266.476 C 277.979 265.884,277.625 264.680,277.200 263.800 C 276.775 262.920,276.421 261.716,276.414 261.124 C 276.406 260.532,276.220 259.936,276.000 259.800 C 275.780 259.664,275.600 258.939,275.600 258.189 C 275.600 257.438,275.240 256.183,274.800 255.400 C 274.360 254.617,274.000 253.621,274.000 253.188 C 274.000 252.755,273.820 252.400,273.600 252.400 C 273.380 252.400,273.200 251.601,273.200 250.624 C 273.200 249.647,273.020 248.736,272.800 248.600 C 272.580 248.464,272.400 247.816,272.400 247.160 C 272.400 246.505,272.040 245.262,271.600 244.400 C 271.160 243.538,270.800 242.285,270.800 241.616 C 270.800 240.947,270.620 240.400,270.400 240.400 C 270.180 240.400,270.000 239.673,270.000 238.784 C 270.000 237.895,269.640 236.462,269.200 235.600 C 268.760 234.738,268.400 233.675,268.400 233.240 C 268.400 232.804,268.220 232.336,268.000 232.200 C 267.780 232.064,267.600 231.397,267.600 230.717 C 267.600 229.470,266.155 224.922,265.535 224.220 C 265.351 224.011,265.200 223.167,265.200 222.344 C 265.200 221.521,265.020 220.736,264.800 220.600 C 264.580 220.464,264.400 219.816,264.400 219.160 C 264.400 218.505,264.040 217.262,263.600 216.400 C 263.160 215.538,262.800 214.411,262.800 213.896 C 262.800 213.381,262.637 212.789,262.439 212.580 C 262.240 212.371,261.992 211.390,261.888 210.400 C 261.703 208.639,260.787 205.688,259.997 204.305 C 259.779 203.923,259.600 203.079,259.600 202.429 C 259.600 201.779,259.420 201.136,259.200 201.000 C 258.980 200.864,258.794 200.178,258.786 199.476 C 258.779 198.774,258.425 197.480,258.000 196.600 C 257.575 195.720,257.221 194.595,257.214 194.100 C 257.206 193.605,257.020 193.200,256.800 193.200 C 256.580 193.200,256.400 192.395,256.400 191.412 C 256.400 190.366,256.068 189.034,255.600 188.200 C 255.160 187.417,254.800 186.342,254.800 185.811 C 254.800 185.281,254.620 184.736,254.400 184.600 C 254.180 184.464,254.000 183.654,254.000 182.800 C 254.000 181.946,253.820 181.136,253.600 181.000 C 253.380 180.864,253.194 180.178,253.186 179.476 C 253.179 178.774,252.825 177.480,252.400 176.600 C 251.975 175.720,251.621 174.696,251.614 174.324 C 251.606 173.952,251.420 173.536,251.200 173.400 C 250.980 173.264,250.800 172.539,250.800 171.789 C 250.800 171.038,250.440 169.783,250.000 169.000 C 249.560 168.217,249.200 167.142,249.200 166.611 C 249.200 166.081,249.020 165.536,248.800 165.400 C 248.580 165.264,248.400 164.364,248.400 163.400 C 248.400 162.436,248.220 161.536,248.000 161.400 C 247.780 161.264,247.594 160.668,247.586 160.076 C 247.579 159.484,247.225 158.280,246.800 157.400 C 246.375 156.520,246.021 155.316,246.014 154.724 C 246.006 154.132,245.820 153.536,245.600 153.400 C 245.380 153.264,245.194 152.488,245.186 151.676 C 245.179 150.864,244.832 149.480,244.415 148.600 L 243.658 147.000 247.325 146.884 C 249.342 146.820,251.165 146.595,251.376 146.384 C 251.587 146.173,252.339 146.000,253.046 146.000 C 254.172 146.000,256.708 144.846,261.644 142.089 C 262.352 141.693,263.128 141.024,263.366 140.601 C 263.605 140.179,264.033 139.580,264.319 139.269 C 267.845 135.434,268.861 126.161,266.300 121.189 C 263.992 116.709,257.777 111.600,254.635 111.600 C 254.092 111.600,253.536 111.420,253.400 111.200 C 253.264 110.980,252.349 110.800,251.366 110.800 L 249.579 110.800 250.190 109.620 C 250.525 108.971,250.800 107.991,250.800 107.443 C 250.800 106.896,250.980 106.336,251.200 106.200 C 251.420 106.064,251.601 105.558,251.602 105.076 C 251.604 104.594,251.891 103.660,252.240 103.000 C 252.666 102.193,253.002 99.866,253.264 95.900 C 253.739 88.703,253.204 78.823,252.240 77.000 C 251.891 76.340,251.604 75.406,251.602 74.924 C 251.601 74.442,251.420 73.936,251.200 73.800 C 250.980 73.664,250.800 73.095,250.800 72.536 C 250.800 71.407,246.407 62.684,245.180 61.379 C 244.751 60.922,244.400 60.397,244.400 60.212 C 244.400 60.027,243.725 59.203,242.900 58.382 C 242.075 57.561,241.205 56.554,240.967 56.144 C 240.729 55.735,240.144 55.222,239.667 55.005 C 239.190 54.788,238.800 54.393,238.800 54.128 C 238.800 53.597,233.933 49.819,231.400 48.383 C 227.355 46.091,225.448 45.200,224.583 45.200 C 224.068 45.200,223.536 45.020,223.400 44.800 C 223.264 44.580,222.668 44.399,222.076 44.398 C 221.484 44.396,220.460 44.084,219.800 43.703 C 217.839 42.574,199.654 42.479,197.400 43.587 M216.400 52.920 C 243.209 58.389,253.387 95.034,234.085 116.599 C 233.158 117.634,232.400 118.615,232.400 118.778 C 232.400 118.941,235.865 119.196,240.100 119.344 C 252.083 119.765,256.450 121.572,257.761 126.652 C 259.671 134.057,252.652 138.000,237.560 138.000 C 231.378 138.000,230.991 138.306,232.215 142.229 C 233.300 145.710,233.902 147.745,234.571 150.200 C 234.931 151.520,235.382 153.140,235.573 153.800 C 235.764 154.460,236.227 156.080,236.601 157.400 C 236.976 158.720,237.429 160.250,237.609 160.800 C 237.789 161.350,238.211 162.790,238.547 164.000 C 239.184 166.290,240.619 171.325,241.227 173.400 C 241.420 174.060,241.960 175.950,242.427 177.600 C 242.894 179.250,243.438 181.140,243.637 181.800 C 243.836 182.460,244.451 184.620,245.003 186.600 C 247.140 194.264,247.937 197.080,249.019 200.800 C 249.963 204.044,250.787 206.917,252.400 212.600 C 253.274 215.680,254.252 219.100,254.573 220.200 C 254.894 221.300,255.247 222.560,255.358 223.000 C 255.469 223.440,255.940 225.060,256.405 226.600 C 256.870 228.140,257.409 230.030,257.604 230.800 C 257.799 231.570,258.231 233.100,258.563 234.200 C 258.895 235.300,259.611 237.820,260.153 239.800 C 260.695 241.780,261.311 243.940,261.522 244.600 C 261.733 245.260,262.213 246.880,262.590 248.200 C 262.967 249.520,263.529 251.410,263.839 252.400 C 264.150 253.390,264.403 254.594,264.402 255.076 C 264.401 255.558,264.560 256.051,264.755 256.172 C 264.950 256.293,265.227 257.068,265.371 257.896 C 265.515 258.723,265.791 259.850,265.984 260.400 C 266.178 260.950,266.640 262.480,267.012 263.800 C 268.023 267.391,268.781 270.058,269.171 271.400 C 269.583 272.815,270.491 276.048,271.419 279.400 C 271.784 280.720,272.328 282.610,272.628 283.600 C 272.928 284.590,273.450 286.390,273.788 287.600 C 274.551 290.328,277.066 299.108,277.855 301.800 C 278.177 302.900,278.582 304.430,278.753 305.200 C 278.925 305.970,279.268 307.230,279.515 308.000 C 280.178 310.067,281.768 315.578,283.209 320.800 C 286.015 330.967,285.566 330.123,289.427 332.507 C 295.480 336.246,297.292 338.936,298.385 345.800 C 298.889 348.964,299.154 367.025,298.713 368.100 C 298.289 369.130,121.038 369.197,120.643 368.167 C 120.299 367.272,120.388 352.224,120.767 347.200 C 121.343 339.559,123.803 335.707,129.965 332.799 C 136.109 329.900,136.194 329.846,136.320 328.800 C 136.385 328.250,136.683 326.990,136.982 326.000 C 137.281 325.010,137.825 323.120,138.191 321.800 C 138.557 320.480,139.097 318.590,139.392 317.600 C 139.686 316.610,140.409 313.910,141.000 311.600 C 141.591 309.290,142.310 306.590,142.599 305.600 C 143.728 301.735,144.369 299.358,144.540 298.400 C 144.639 297.850,144.907 296.860,145.136 296.200 C 145.365 295.540,145.856 293.830,146.227 292.400 C 146.597 290.970,147.302 288.360,147.794 286.600 C 148.286 284.840,148.994 282.230,149.368 280.800 C 149.741 279.370,150.235 277.660,150.464 277.000 C 150.693 276.340,150.961 275.350,151.060 274.800 C 151.240 273.791,152.110 270.582,152.904 268.000 C 153.141 267.230,153.471 265.970,153.638 265.200 C 153.920 263.902,155.173 259.255,156.659 254.000 C 157.001 252.790,157.546 250.810,157.872 249.600 C 159.289 244.325,159.678 242.884,160.192 241.000 C 160.492 239.900,161.003 238.010,161.327 236.800 C 162.658 231.837,163.702 228.046,164.467 225.400 C 164.912 223.860,165.408 221.970,165.571 221.200 C 165.733 220.430,166.059 219.170,166.296 218.400 C 166.811 216.724,167.687 213.551,168.616 210.000 C 168.990 208.570,169.522 206.590,169.799 205.600 C 170.303 203.795,170.615 202.663,171.835 198.200 C 172.196 196.880,172.740 195.074,173.045 194.187 C 173.350 193.299,173.600 192.243,173.600 191.840 C 173.600 191.437,173.861 190.273,174.179 189.254 C 174.498 188.234,175.042 186.366,175.387 185.103 C 175.733 183.839,176.285 181.859,176.615 180.703 C 176.944 179.546,177.663 176.890,178.212 174.800 C 179.194 171.067,179.822 168.773,181.062 164.400 C 181.695 162.168,182.271 160.050,183.373 155.897 C 183.709 154.631,184.252 152.651,184.580 151.497 C 185.115 149.618,185.805 147.055,187.386 141.076 C 188.146 138.204,187.791 138.000,182.046 138.000 C 167.628 138.000,161.200 135.101,161.200 128.600 C 161.200 122.500,165.932 119.820,177.543 119.341 C 184.687 119.047,184.841 118.968,182.570 116.778 C 178.298 112.661,174.423 105.447,173.557 100.000 C 173.365 98.790,173.037 96.900,172.828 95.800 C 172.338 93.224,172.338 86.376,172.828 83.800 C 173.037 82.700,173.365 80.810,173.557 79.600 C 175.207 69.223,185.089 57.999,196.200 53.884 C 201.179 52.040,210.018 51.618,216.400 52.920 " stroke="none" fill="#090909" fill-rule="evenodd"></path><path id="path1" d="M200.800 52.682 C 187.685 55.346,175.498 67.387,173.557 79.600 C 173.365 80.810,173.037 82.700,172.828 83.800 C 172.338 86.376,172.338 93.224,172.828 95.800 C 173.037 96.900,173.365 98.790,173.557 100.000 C 174.423 105.447,178.298 112.661,182.570 116.778 C 184.841 118.968,184.687 119.047,177.543 119.341 C 165.932 119.820,161.200 122.500,161.200 128.600 C 161.200 135.101,167.628 138.000,182.046 138.000 C 187.791 138.000,188.146 138.204,187.386 141.076 C 185.805 147.055,185.115 149.618,184.580 151.497 C 184.252 152.651,183.709 154.631,183.373 155.897 C 182.271 160.050,181.695 162.168,181.062 164.400 C 179.822 168.773,179.194 171.067,178.212 174.800 C 177.663 176.890,176.944 179.546,176.615 180.703 C 176.285 181.859,175.733 183.839,175.387 185.103 C 175.042 186.366,174.498 188.234,174.179 189.254 C 173.861 190.273,173.600 191.437,173.600 191.840 C 173.600 192.243,173.350 193.299,173.045 194.187 C 172.740 195.074,172.196 196.880,171.835 198.200 C 170.615 202.663,170.303 203.795,169.799 205.600 C 169.522 206.590,168.990 208.570,168.616 210.000 C 167.687 213.551,166.811 216.724,166.296 218.400 C 166.059 219.170,165.733 220.430,165.571 221.200 C 165.408 221.970,164.912 223.860,164.467 225.400 C 163.702 228.046,162.658 231.837,161.327 236.800 C 161.003 238.010,160.492 239.900,160.192 241.000 C 159.678 242.884,159.289 244.325,157.872 249.600 C 157.546 250.810,157.001 252.790,156.659 254.000 C 155.173 259.255,153.920 263.902,153.638 265.200 C 153.471 265.970,153.141 267.230,152.904 268.000 C 152.110 270.582,151.240 273.791,151.060 274.800 C 150.961 275.350,150.693 276.340,150.464 277.000 C 150.235 277.660,149.741 279.370,149.368 280.800 C 148.994 282.230,148.286 284.840,147.794 286.600 C 147.302 288.360,146.597 290.970,146.227 292.400 C 145.856 293.830,145.365 295.540,145.136 296.200 C 144.907 296.860,144.639 297.850,144.540 298.400 C 144.369 299.358,143.728 301.735,142.599 305.600 C 142.310 306.590,141.591 309.290,141.000 311.600 C 140.409 313.910,139.686 316.610,139.392 317.600 C 139.097 318.590,138.557 320.480,138.191 321.800 C 137.825 323.120,137.281 325.010,136.982 326.000 C 136.683 326.990,136.385 328.250,136.320 328.800 C 136.194 329.846,136.109 329.900,129.965 332.799 C 123.803 335.707,121.343 339.559,120.767 347.200 C 120.388 352.224,120.299 367.272,120.643 368.167 C 121.038 369.197,298.289 369.130,298.713 368.100 C 299.154 367.025,298.889 348.964,298.385 345.800 C 297.292 338.936,295.480 336.246,289.427 332.507 C 285.566 330.123,286.015 330.967,283.209 320.800 C 281.768 315.578,280.178 310.067,279.515 308.000 C 279.268 307.230,278.925 305.970,278.753 305.200 C 278.582 304.430,278.177 302.900,277.855 301.800 C 277.066 299.108,274.551 290.328,273.788 287.600 C 273.450 286.390,272.928 284.590,272.628 283.600 C 272.328 282.610,271.784 280.720,271.419 279.400 C 270.491 276.048,269.583 272.815,269.171 271.400 C 268.781 270.058,268.023 267.391,267.012 263.800 C 266.640 262.480,266.178 260.950,265.984 260.400 C 265.791 259.850,265.515 258.723,265.371 257.896 C 265.227 257.068,264.950 256.293,264.755 256.172 C 264.560 256.051,264.401 255.558,264.402 255.076 C 264.403 254.594,264.150 253.390,263.839 252.400 C 263.529 251.410,262.967 249.520,262.590 248.200 C 262.213 246.880,261.733 245.260,261.522 244.600 C 261.311 243.940,260.695 241.780,260.153 239.800 C 259.611 237.820,258.895 235.300,258.563 234.200 C 258.231 233.100,257.799 231.570,257.604 230.800 C 257.409 230.030,256.870 228.140,256.405 226.600 C 255.940 225.060,255.469 223.440,255.358 223.000 C 255.247 222.560,254.894 221.300,254.573 220.200 C 254.252 219.100,253.274 215.680,252.400 212.600 C 250.787 206.917,249.963 204.044,249.019 200.800 C 247.937 197.080,247.140 194.264,245.003 186.600 C 244.451 184.620,243.836 182.460,243.637 181.800 C 243.438 181.140,242.894 179.250,242.427 177.600 C 241.960 175.950,241.420 174.060,241.227 173.400 C 240.619 171.325,239.184 166.290,238.547 164.000 C 238.211 162.790,237.789 161.350,237.609 160.800 C 237.429 160.250,236.976 158.720,236.601 157.400 C 236.227 156.080,235.764 154.460,235.573 153.800 C 235.382 153.140,234.931 151.520,234.571 150.200 C 233.902 147.745,233.300 145.710,232.215 142.229 C 230.991 138.306,231.378 138.000,237.560 138.000 C 252.652 138.000,259.671 134.057,257.761 126.652 C 256.450 121.572,252.083 119.765,240.100 119.344 C 235.865 119.196,232.400 118.941,232.400 118.778 C 232.400 118.615,233.158 117.634,234.085 116.599 C 250.366 98.409,246.324 68.874,225.857 56.470 C 219.710 52.745,208.692 51.079,200.800 52.682 " stroke="none" fill="#fbfbfb" fill-rule="evenodd"></path></g></svg>