<svg id="svg" version="1.1" xmlns="http://www.w3.org/2000/svg" xmlns:xlink="http://www.w3.org/1999/xlink" width="400" height="400" viewBox="0, 0, 400,400"><g id="svgg"><path id="path0" d="M196.400 28.860 C 191.678 31.416,189.200 35.629,189.200 41.104 C 189.200 43.035,189.034 44.400,188.800 44.400 C 188.580 44.400,188.400 44.040,188.400 43.600 C 188.400 43.160,188.220 42.800,188.000 42.800 C 187.780 42.800,187.600 42.564,187.600 42.275 C 187.600 41.987,187.240 41.364,186.800 40.892 C 186.360 40.420,186.000 39.756,186.000 39.417 C 186.000 39.078,185.820 38.800,185.600 38.800 C 185.380 38.800,185.200 38.575,185.200 38.300 C 185.199 37.525,183.384 35.600,182.653 35.600 C 182.294 35.600,182.000 35.420,182.000 35.200 C 182.000 34.980,181.640 34.800,181.200 34.800 C 180.760 34.800,180.400 34.620,180.400 34.400 C 180.400 33.488,173.870 33.944,171.740 35.005 C 169.596 36.074,167.600 37.998,167.600 38.997 C 167.600 39.328,167.420 39.600,167.200 39.600 C 166.980 39.600,166.800 39.834,166.800 40.120 C 166.800 42.202,165.154 41.329,162.802 38.000 C 161.348 35.942,159.315 34.000,158.613 34.000 C 158.276 34.000,158.000 33.820,158.000 33.600 C 158.000 33.380,157.640 33.200,157.200 33.200 C 156.760 33.200,156.400 33.020,156.400 32.800 C 156.400 32.567,155.067 32.400,153.200 32.400 C 151.333 32.400,150.000 32.567,150.000 32.800 C 150.000 33.020,149.640 33.200,149.200 33.200 C 148.760 33.200,148.400 33.380,148.400 33.600 C 148.400 33.820,148.117 34.000,147.771 34.000 C 146.963 34.000,146.000 34.963,146.000 35.771 C 146.000 36.117,145.820 36.400,145.600 36.400 C 145.380 36.400,145.200 36.760,145.200 37.200 C 145.200 37.640,145.020 38.000,144.800 38.000 C 144.552 38.000,144.400 40.133,144.400 43.600 C 144.400 47.067,144.552 49.200,144.800 49.200 C 145.029 49.200,145.200 50.400,145.200 52.000 C 145.200 53.600,145.371 54.800,145.600 54.800 C 145.829 54.800,146.000 56.000,146.000 57.600 C 146.000 59.200,146.171 60.400,146.400 60.400 C 146.625 60.400,146.800 61.525,146.800 62.976 C 146.800 64.393,146.980 65.664,147.200 65.800 C 147.420 65.936,147.600 67.106,147.600 68.400 C 147.600 69.694,147.780 70.864,148.000 71.000 C 148.220 71.136,148.400 72.216,148.400 73.400 C 148.400 74.584,148.580 75.664,148.800 75.800 C 149.020 75.936,149.200 76.847,149.200 77.824 C 149.200 78.801,149.380 79.600,149.600 79.600 C 149.822 79.600,150.000 80.667,150.000 82.000 C 150.000 83.333,150.178 84.400,150.400 84.400 C 150.629 84.400,150.800 85.600,150.800 87.200 C 150.800 88.800,150.971 90.000,151.200 90.000 C 151.420 90.000,151.600 90.360,151.600 90.800 C 151.600 91.240,151.780 91.600,152.000 91.600 C 152.220 91.600,152.400 91.960,152.400 92.400 C 152.400 92.840,152.580 93.200,152.800 93.200 C 153.020 93.200,153.200 93.483,153.200 93.829 C 153.200 94.637,154.163 95.600,154.971 95.600 C 155.478 95.600,155.600 96.101,155.600 98.176 C 155.600 99.593,155.780 100.864,156.000 101.000 C 156.220 101.136,156.400 102.317,156.400 103.624 C 156.400 104.941,156.578 106.000,156.800 106.000 C 157.020 106.000,157.200 106.900,157.200 108.000 C 157.200 109.100,157.380 110.000,157.600 110.000 C 157.820 110.000,158.000 110.619,158.000 111.376 C 158.000 112.133,158.180 112.864,158.400 113.000 C 158.620 113.136,158.800 113.676,158.800 114.200 C 158.800 114.724,158.980 115.264,159.200 115.400 C 159.420 115.536,159.600 115.997,159.600 116.424 C 159.600 116.851,159.780 117.200,160.000 117.200 C 160.220 117.200,160.400 117.740,160.400 118.400 C 160.400 119.060,160.580 119.600,160.800 119.600 C 161.020 119.600,161.200 119.949,161.200 120.376 C 161.200 120.803,161.380 121.264,161.600 121.400 C 161.820 121.536,162.000 122.087,162.000 122.624 C 162.000 123.161,162.180 123.600,162.400 123.600 C 162.620 123.600,162.800 123.960,162.800 124.400 C 162.800 124.840,162.980 125.200,163.200 125.200 C 163.420 125.200,163.600 125.560,163.600 126.000 C 163.600 126.440,163.780 126.800,164.000 126.800 C 164.220 126.800,164.400 127.160,164.400 127.600 C 164.400 128.040,164.580 128.400,164.800 128.400 C 165.020 128.400,165.200 128.760,165.200 129.200 C 165.200 129.640,165.380 130.000,165.600 130.000 C 165.820 130.000,166.000 130.236,166.000 130.525 C 166.000 130.813,166.360 131.436,166.800 131.908 C 167.240 132.380,167.600 133.004,167.600 133.295 C 167.600 133.586,167.960 134.083,168.400 134.400 C 168.840 134.717,169.200 135.282,169.200 135.655 C 169.200 136.028,169.423 136.408,169.696 136.499 C 170.223 136.674,169.189 138.000,168.526 138.000 C 168.344 138.000,167.431 138.720,166.497 139.600 C 165.563 140.480,164.645 141.200,164.459 141.200 C 164.272 141.200,163.554 141.740,162.863 142.400 C 162.172 143.060,161.447 143.600,161.252 143.600 C 161.056 143.600,160.155 144.320,159.248 145.200 C 158.341 146.080,157.395 146.800,157.146 146.800 C 156.898 146.800,156.403 147.124,156.047 147.519 C 155.691 147.914,154.770 148.677,154.000 149.215 C 153.230 149.752,152.078 150.688,151.441 151.296 C 150.803 151.903,150.078 152.400,149.829 152.400 C 149.580 152.400,149.117 152.760,148.800 153.200 C 148.483 153.640,148.037 154.000,147.810 154.000 C 147.582 154.000,146.662 154.675,145.765 155.500 C 144.868 156.325,143.789 157.199,143.367 157.442 C 141.214 158.681,140.475 161.364,140.436 168.076 C 140.414 171.870,140.558 174.451,140.800 174.600 C 141.020 174.736,141.200 175.197,141.200 175.624 C 141.200 176.051,141.380 176.400,141.600 176.400 C 141.820 176.400,142.000 176.760,142.000 177.200 C 142.000 177.640,142.180 178.000,142.400 178.000 C 142.620 178.000,142.800 178.274,142.800 178.609 C 142.800 179.219,146.911 183.596,147.491 183.604 C 147.661 183.607,148.660 184.402,149.712 185.372 L 151.623 187.134 150.812 188.579 C 149.905 190.193,149.538 203.600,150.400 203.600 C 150.620 203.600,150.800 203.960,150.800 204.400 C 150.800 204.840,150.980 205.200,151.200 205.200 C 151.420 205.200,151.600 205.560,151.600 206.000 C 151.600 206.440,151.780 206.800,152.000 206.800 C 152.220 206.800,152.400 207.075,152.400 207.411 C 152.400 208.204,155.796 211.600,156.589 211.600 C 156.925 211.600,157.200 211.780,157.200 212.000 C 157.200 212.220,157.560 212.400,158.000 212.400 C 158.440 212.400,158.800 212.580,158.800 212.800 C 158.800 213.020,159.160 213.200,159.600 213.200 C 160.040 213.200,160.400 213.380,160.400 213.600 C 160.400 213.820,160.929 214.000,161.576 214.000 C 162.223 214.000,162.864 214.180,163.000 214.400 C 163.137 214.621,164.937 214.800,167.024 214.800 L 170.800 214.800 170.800 216.176 C 170.800 216.933,170.620 217.664,170.400 217.800 C 170.180 217.936,170.000 218.566,170.000 219.200 C 170.000 219.834,169.820 220.464,169.600 220.600 C 169.380 220.736,169.200 221.647,169.200 222.624 C 169.200 223.601,169.020 224.400,168.800 224.400 C 168.580 224.400,168.400 225.300,168.400 226.400 C 168.400 227.500,168.220 228.400,168.000 228.400 C 167.780 228.400,167.600 229.109,167.600 229.976 C 167.600 230.843,167.420 231.664,167.200 231.800 C 166.980 231.936,166.800 232.847,166.800 233.824 C 166.800 234.801,166.620 235.600,166.400 235.600 C 166.180 235.600,166.000 236.399,166.000 237.376 C 166.000 238.353,165.820 239.264,165.600 239.400 C 165.380 239.536,165.200 240.076,165.200 240.600 C 165.200 241.124,165.020 241.664,164.800 241.800 C 164.580 241.936,164.400 242.746,164.400 243.600 C 164.400 244.454,164.220 245.264,164.000 245.400 C 163.780 245.536,163.600 246.346,163.600 247.200 C 163.600 248.054,163.420 248.864,163.200 249.000 C 162.980 249.136,162.800 249.957,162.800 250.824 C 162.800 251.691,162.620 252.400,162.400 252.400 C 162.180 252.400,162.000 253.300,162.000 254.400 C 162.000 255.500,161.820 256.400,161.600 256.400 C 161.380 256.400,161.200 257.109,161.200 257.976 C 161.200 258.843,161.020 259.664,160.800 259.800 C 160.580 259.936,160.400 260.847,160.400 261.824 C 160.400 262.801,160.240 263.600,160.045 263.600 C 159.692 263.600,159.351 264.860,158.935 267.703 C 158.814 268.529,158.555 269.305,158.358 269.426 C 158.161 269.548,158.000 270.447,158.000 271.424 C 158.000 272.401,157.820 273.200,157.600 273.200 C 157.380 273.200,157.200 274.100,157.200 275.200 C 157.200 276.300,157.020 277.200,156.800 277.200 C 156.580 277.200,156.400 277.920,156.400 278.800 C 156.400 279.680,156.220 280.400,156.000 280.400 C 155.780 280.400,155.600 281.300,155.600 282.400 C 155.600 283.500,155.420 284.400,155.200 284.400 C 154.980 284.400,154.800 285.019,154.800 285.776 C 154.800 286.533,154.620 287.264,154.400 287.400 C 154.180 287.536,154.000 288.166,154.000 288.800 C 154.000 289.434,153.820 290.064,153.600 290.200 C 153.380 290.336,153.200 291.146,153.200 292.000 C 153.200 292.854,153.020 293.664,152.800 293.800 C 152.580 293.936,152.400 294.757,152.400 295.624 C 152.400 296.491,152.220 297.200,152.000 297.200 C 151.780 297.200,151.600 298.100,151.600 299.200 C 151.600 300.300,151.420 301.200,151.200 301.200 C 150.980 301.200,150.800 301.909,150.800 302.776 C 150.800 303.643,150.620 304.464,150.400 304.600 C 150.180 304.736,150.000 305.647,150.000 306.624 C 150.000 307.601,149.840 308.400,149.645 308.400 C 149.292 308.400,148.951 309.660,148.535 312.503 C 148.414 313.329,148.155 314.105,147.958 314.226 C 147.761 314.348,147.600 315.247,147.600 316.224 C 147.600 317.201,147.420 318.000,147.200 318.000 C 146.980 318.000,146.800 318.709,146.800 319.576 C 146.800 320.443,146.620 321.264,146.400 321.400 C 146.180 321.536,146.000 322.447,146.000 323.424 C 146.000 324.401,145.820 325.200,145.600 325.200 C 145.380 325.200,145.200 325.999,145.200 326.976 C 145.200 327.953,145.020 328.864,144.800 329.000 C 144.580 329.136,144.400 329.957,144.400 330.824 C 144.400 331.691,144.220 332.400,144.000 332.400 C 143.780 332.400,143.600 332.928,143.600 333.573 C 143.600 334.913,142.875 335.507,138.729 337.565 C 134.559 339.634,130.800 344.032,130.800 346.841 C 130.800 347.258,130.620 347.600,130.400 347.600 C 130.180 347.600,130.000 348.320,130.000 349.200 C 130.000 350.080,129.820 350.800,129.600 350.800 C 129.343 350.800,129.200 354.800,129.200 362.000 C 129.200 369.200,129.343 373.200,129.600 373.200 C 129.820 373.200,130.000 373.560,130.000 374.000 C 130.000 374.440,130.180 374.800,130.400 374.800 C 130.620 374.800,130.800 375.083,130.800 375.429 C 130.800 376.237,131.763 377.200,132.571 377.200 C 132.917 377.200,133.200 377.380,133.200 377.600 C 133.200 377.820,133.560 378.000,134.000 378.000 C 134.440 378.000,134.800 378.180,134.800 378.400 C 134.800 378.665,158.267 378.800,204.400 378.800 C 250.533 378.800,274.000 378.665,274.000 378.400 C 274.000 378.180,274.360 378.000,274.800 378.000 C 275.240 378.000,275.600 377.820,275.600 377.600 C 275.600 377.380,275.883 377.200,276.229 377.200 C 277.037 377.200,278.000 376.237,278.000 375.429 C 278.000 375.083,278.180 374.800,278.400 374.800 C 278.620 374.800,278.800 374.440,278.800 374.000 C 278.800 373.560,278.980 373.200,279.200 373.200 C 279.458 373.200,279.600 369.008,279.600 361.424 C 279.600 354.004,279.452 349.556,279.200 349.400 C 278.980 349.264,278.800 348.623,278.800 347.976 C 278.800 347.329,278.620 346.800,278.400 346.800 C 278.180 346.800,278.000 346.440,278.000 346.000 C 278.000 345.560,277.820 345.200,277.600 345.200 C 277.380 345.200,277.200 344.840,277.200 344.400 C 277.200 343.960,277.020 343.600,276.800 343.600 C 276.580 343.600,276.400 343.359,276.400 343.064 C 276.400 341.264,267.961 335.587,265.300 335.597 C 264.516 335.600,264.400 335.394,264.400 334.000 C 264.400 333.120,264.220 332.400,264.000 332.400 C 263.780 332.400,263.600 331.601,263.600 330.624 C 263.600 329.647,263.420 328.736,263.200 328.600 C 262.980 328.464,262.800 327.643,262.800 326.776 C 262.800 325.909,262.620 325.200,262.400 325.200 C 262.180 325.200,262.000 324.491,262.000 323.624 C 262.000 322.757,261.840 321.948,261.644 321.827 C 261.308 321.620,261.073 320.609,260.543 317.100 C 260.418 316.275,260.155 315.600,259.958 315.600 C 259.761 315.600,259.600 314.880,259.600 314.000 C 259.600 313.120,259.420 312.400,259.200 312.400 C 258.980 312.400,258.800 311.601,258.800 310.624 C 258.800 309.647,258.620 308.736,258.400 308.600 C 258.180 308.464,258.000 307.643,258.000 306.776 C 258.000 305.909,257.820 305.200,257.600 305.200 C 257.380 305.200,257.200 304.401,257.200 303.424 C 257.200 302.447,257.020 301.536,256.800 301.400 C 256.580 301.264,256.400 300.544,256.400 299.800 C 256.400 299.056,256.220 298.336,256.000 298.200 C 255.780 298.064,255.600 297.423,255.600 296.776 C 255.600 296.129,255.420 295.600,255.200 295.600 C 254.980 295.600,254.800 294.880,254.800 294.000 C 254.800 293.120,254.620 292.400,254.400 292.400 C 254.180 292.400,254.000 291.601,254.000 290.624 C 254.000 289.647,253.820 288.736,253.600 288.600 C 253.380 288.464,253.200 287.643,253.200 286.776 C 253.200 285.909,253.020 285.200,252.800 285.200 C 252.580 285.200,252.400 284.401,252.400 283.424 C 252.400 282.447,252.220 281.536,252.000 281.400 C 251.780 281.264,251.600 280.544,251.600 279.800 C 251.600 279.056,251.439 278.348,251.242 278.226 C 251.045 278.105,250.786 277.329,250.665 276.503 C 250.249 273.660,249.908 272.400,249.555 272.400 C 249.360 272.400,249.200 271.500,249.200 270.400 C 249.200 269.300,249.020 268.400,248.800 268.400 C 248.580 268.400,248.400 267.680,248.400 266.800 C 248.400 265.920,248.220 265.200,248.000 265.200 C 247.780 265.200,247.600 264.401,247.600 263.424 C 247.600 262.447,247.420 261.536,247.200 261.400 C 246.980 261.264,246.800 260.443,246.800 259.576 C 246.800 258.709,246.620 258.000,246.400 258.000 C 246.180 258.000,246.000 257.201,246.000 256.224 C 246.000 255.247,245.820 254.336,245.600 254.200 C 245.380 254.064,245.200 253.434,245.200 252.800 C 245.200 252.166,245.020 251.536,244.800 251.400 C 244.580 251.264,244.400 250.533,244.400 249.776 C 244.400 249.019,244.220 248.400,244.000 248.400 C 243.780 248.400,243.600 247.680,243.600 246.800 C 243.600 245.920,243.420 245.200,243.200 245.200 C 242.980 245.200,242.800 244.300,242.800 243.200 C 242.800 242.100,242.620 241.200,242.400 241.200 C 242.180 241.200,242.000 240.480,242.000 239.600 C 242.000 238.720,241.820 238.000,241.600 238.000 C 241.380 238.000,241.200 237.201,241.200 236.224 C 241.200 235.247,241.020 234.336,240.800 234.200 C 240.580 234.064,240.400 233.254,240.400 232.400 C 240.400 231.546,240.220 230.736,240.000 230.600 C 239.780 230.464,239.600 229.924,239.600 229.400 C 239.600 228.876,239.420 228.336,239.200 228.200 C 238.980 228.064,238.800 227.333,238.800 226.576 C 238.800 225.819,238.620 225.200,238.400 225.200 C 238.180 225.200,238.000 224.300,238.000 223.200 C 238.000 222.100,237.820 221.200,237.600 221.200 C 237.380 221.200,237.200 220.491,237.200 219.624 C 237.200 218.757,237.020 217.936,236.800 217.800 C 236.580 217.664,236.400 216.933,236.400 216.176 L 236.400 214.800 240.576 214.800 C 242.929 214.800,244.861 214.625,245.000 214.400 C 245.136 214.180,245.777 214.000,246.424 214.000 C 247.071 214.000,247.600 213.820,247.600 213.600 C 247.600 213.380,247.960 213.200,248.400 213.200 C 248.840 213.200,249.200 213.020,249.200 212.800 C 249.200 212.580,249.560 212.400,250.000 212.400 C 250.440 212.400,250.800 212.220,250.800 212.000 C 250.800 211.780,251.075 211.600,251.411 211.600 C 252.204 211.600,255.600 208.204,255.600 207.411 C 255.600 207.075,255.780 206.800,256.000 206.800 C 256.220 206.800,256.400 206.440,256.400 206.000 C 256.400 205.560,256.580 205.200,256.800 205.200 C 257.020 205.200,257.200 204.840,257.200 204.400 C 257.200 203.960,257.380 203.600,257.600 203.600 C 257.820 203.600,258.000 202.880,258.000 202.000 C 258.000 201.120,258.180 200.400,258.400 200.400 C 258.641 200.400,258.800 198.741,258.800 196.224 C 258.800 193.871,258.625 191.939,258.400 191.800 C 258.180 191.664,258.000 191.023,258.000 190.376 C 258.000 189.729,257.820 189.200,257.600 189.200 C 257.380 189.200,257.200 188.840,257.200 188.400 C 257.200 187.960,257.020 187.600,256.800 187.600 C 255.436 187.600,256.915 185.486,259.600 183.598 C 262.063 181.865,263.378 180.274,264.907 177.170 L 266.400 174.140 266.400 168.138 C 266.400 160.351,265.532 158.423,260.400 154.808 C 259.630 154.266,258.651 153.502,258.225 153.111 C 257.798 152.720,257.303 152.400,257.125 152.400 C 256.947 152.400,256.059 151.680,255.152 150.800 C 254.245 149.920,253.344 149.200,253.148 149.200 C 252.953 149.200,252.228 148.660,251.537 148.000 C 250.846 147.340,250.104 146.800,249.888 146.800 C 249.671 146.800,249.203 146.476,248.847 146.081 C 248.491 145.686,247.570 144.929,246.800 144.400 C 246.030 143.871,245.109 143.114,244.753 142.719 C 244.397 142.324,243.884 142.000,243.614 142.000 C 243.343 142.000,242.617 141.460,242.000 140.800 C 241.383 140.140,240.726 139.596,240.540 139.591 C 240.069 139.578,237.200 136.956,237.201 136.539 C 237.201 136.353,237.741 135.570,238.400 134.800 C 239.059 134.030,239.599 133.175,239.599 132.900 C 239.600 132.625,239.780 132.400,240.000 132.400 C 240.220 132.400,240.400 132.040,240.400 131.600 C 240.400 131.160,240.580 130.800,240.800 130.800 C 241.020 130.800,241.200 130.440,241.200 130.000 C 241.200 129.560,241.380 129.200,241.600 129.200 C 241.820 129.200,242.000 128.855,242.000 128.433 C 242.000 128.012,242.137 127.607,242.304 127.533 C 242.712 127.354,246.007 120.733,246.003 120.100 C 246.001 119.825,246.180 119.600,246.400 119.600 C 246.620 119.600,246.800 119.060,246.800 118.400 C 246.800 117.740,246.980 117.200,247.200 117.200 C 247.420 117.200,247.600 116.660,247.600 116.000 C 247.600 115.340,247.780 114.800,248.000 114.800 C 248.220 114.800,248.400 114.080,248.400 113.200 C 248.400 112.320,248.580 111.600,248.800 111.600 C 249.020 111.600,249.200 110.880,249.200 110.000 C 249.200 109.120,249.380 108.400,249.600 108.400 C 249.820 108.400,250.000 107.871,250.000 107.224 C 250.000 106.577,250.180 105.936,250.400 105.800 C 250.620 105.664,250.800 104.584,250.800 103.400 C 250.800 102.216,250.980 101.136,251.200 101.000 C 251.420 100.864,251.600 99.593,251.600 98.176 C 251.600 96.725,251.775 95.600,252.000 95.600 C 252.220 95.600,252.400 95.065,252.400 94.412 C 252.400 93.759,252.760 92.583,253.200 91.800 C 253.640 91.017,254.000 89.931,254.000 89.388 C 254.000 88.845,254.180 88.400,254.400 88.400 C 254.620 88.400,254.800 87.601,254.800 86.624 C 254.800 85.647,254.980 84.736,255.200 84.600 C 255.420 84.464,255.600 83.834,255.600 83.200 C 255.600 82.566,255.780 81.936,256.000 81.800 C 256.220 81.664,256.400 80.764,256.400 79.800 C 256.400 78.836,256.580 77.936,256.800 77.800 C 257.020 77.664,257.200 76.584,257.200 75.400 C 257.200 74.216,257.380 73.136,257.600 73.000 C 257.820 72.864,258.000 71.694,258.000 70.400 C 258.000 69.106,258.180 67.936,258.400 67.800 C 258.620 67.664,258.800 66.483,258.800 65.176 C 258.800 63.859,258.978 62.800,259.200 62.800 C 259.429 62.800,259.600 61.600,259.600 60.000 C 259.600 58.460,259.758 57.200,259.950 57.200 C 260.143 57.200,260.414 56.255,260.553 55.100 C 261.116 50.400,261.298 49.383,261.641 49.020 C 262.145 48.487,262.106 38.000,261.600 38.000 C 261.380 38.000,261.200 37.640,261.200 37.200 C 261.200 36.760,261.020 36.400,260.800 36.400 C 260.580 36.400,260.400 36.117,260.400 35.771 C 260.400 34.963,259.437 34.000,258.629 34.000 C 258.283 34.000,258.000 33.820,258.000 33.600 C 258.000 33.380,257.640 33.200,257.200 33.200 C 256.760 33.200,256.400 33.020,256.400 32.800 C 256.400 32.567,255.067 32.400,253.200 32.400 C 251.333 32.400,250.000 32.567,250.000 32.800 C 250.000 33.020,249.640 33.200,249.200 33.200 C 248.760 33.200,248.400 33.380,248.400 33.600 C 248.400 33.820,248.124 34.000,247.787 34.000 C 247.148 34.000,244.400 36.522,244.400 37.108 C 244.400 37.506,241.802 40.400,241.446 40.400 C 241.311 40.400,241.200 40.161,241.200 39.868 C 241.200 39.255,239.565 35.922,238.830 35.036 C 235.829 31.420,225.479 31.748,223.805 35.512 C 223.588 36.000,223.273 36.400,223.105 36.400 C 222.937 36.400,222.800 36.720,222.800 37.112 C 222.800 37.503,222.440 38.083,222.000 38.400 C 221.560 38.717,221.200 39.214,221.200 39.505 C 221.200 39.796,220.840 40.420,220.400 40.892 C 219.960 41.364,219.600 41.987,219.600 42.275 C 219.600 42.564,219.420 42.800,219.200 42.800 C 218.980 42.800,218.800 43.160,218.800 43.600 C 218.800 44.040,218.620 44.400,218.400 44.400 C 218.163 44.400,218.000 42.933,218.000 40.800 C 218.000 38.667,217.837 37.200,217.600 37.200 C 217.380 37.200,217.200 36.840,217.200 36.400 C 217.200 35.960,217.020 35.600,216.800 35.600 C 216.580 35.600,216.400 35.240,216.400 34.800 C 216.400 34.360,216.220 34.000,216.000 34.000 C 215.780 34.000,215.600 33.765,215.600 33.478 C 215.600 32.703,212.993 30.000,212.246 30.000 C 211.891 30.000,211.600 29.820,211.600 29.600 C 211.600 29.380,211.240 29.200,210.800 29.200 C 210.360 29.200,210.000 29.020,210.000 28.800 C 210.000 28.580,209.640 28.400,209.200 28.400 C 208.760 28.400,208.400 28.220,208.400 28.000 C 208.400 26.919,198.703 27.614,196.400 28.860 M206.432 37.363 C 207.212 37.893,208.275 39.128,208.794 40.107 L 209.739 41.887 208.846 44.087 L 207.953 46.287 208.987 48.140 C 211.175 52.059,217.554 60.329,218.669 60.693 C 219.179 60.859,221.664 57.395,223.678 53.711 C 227.222 47.227,231.029 41.200,231.580 41.200 C 231.971 41.200,233.912 45.168,235.641 49.500 C 235.838 49.995,236.163 50.805,236.362 51.300 C 236.561 51.795,237.301 53.685,238.007 55.500 C 239.531 59.419,239.388 59.375,241.400 56.549 C 242.280 55.313,243.180 54.098,243.400 53.849 C 243.620 53.600,245.141 51.597,246.781 49.398 C 251.148 43.541,252.830 41.571,253.244 41.827 C 253.447 41.953,253.494 42.248,253.348 42.484 C 253.202 42.720,252.928 44.193,252.739 45.757 C 252.550 47.321,252.231 49.590,252.029 50.800 C 251.617 53.283,251.029 56.958,250.430 60.800 C 250.207 62.230,249.650 65.470,249.192 68.000 C 248.735 70.530,248.199 73.500,248.003 74.600 C 247.806 75.700,247.539 77.140,247.409 77.800 C 247.279 78.460,246.986 79.990,246.757 81.200 C 246.085 84.750,245.572 86.473,244.542 88.632 C 243.567 90.677,243.107 92.638,242.392 97.800 C 240.243 113.316,235.053 125.336,226.597 134.377 C 222.873 138.359,222.699 137.668,228.561 142.178 C 231.289 144.277,234.574 146.806,235.861 147.800 C 241.459 152.122,243.998 154.083,247.000 156.407 C 248.760 157.770,251.865 160.148,253.900 161.691 L 257.600 164.497 257.600 168.287 C 257.600 173.337,257.320 173.675,246.000 182.285 C 244.790 183.205,243.170 184.492,242.400 185.144 L 241.000 186.330 242.946 187.171 C 247.605 189.183,249.600 191.839,249.600 196.029 C 249.600 203.957,245.265 206.375,231.000 206.403 C 224.655 206.415,224.654 206.416,225.999 211.600 C 226.199 212.370,226.731 214.575,227.181 216.500 C 227.631 218.425,228.369 221.575,228.819 223.500 C 229.269 225.425,229.801 227.630,230.000 228.400 C 230.199 229.170,230.470 230.340,230.603 231.000 C 231.209 234.026,231.558 235.558,232.107 237.600 C 232.432 238.810,233.085 241.510,233.559 243.600 C 234.033 245.690,234.584 248.030,234.785 248.800 C 234.985 249.570,235.352 251.100,235.600 252.200 C 235.848 253.300,236.213 254.830,236.412 255.600 C 236.852 257.304,238.634 264.834,239.441 268.400 C 239.765 269.830,240.191 271.630,240.389 272.400 C 240.587 273.170,240.952 274.700,241.200 275.800 C 241.448 276.900,241.813 278.430,242.012 279.200 C 242.452 280.904,244.234 288.434,245.041 292.000 C 245.730 295.043,246.307 297.315,246.827 299.028 C 247.032 299.704,247.200 300.591,247.200 301.000 C 247.200 301.409,247.375 302.296,247.589 302.972 C 247.804 303.647,248.531 306.540,249.206 309.400 C 249.881 312.260,250.598 315.230,250.800 316.000 C 251.001 316.770,251.374 318.390,251.628 319.600 C 251.882 320.810,252.250 322.213,252.445 322.719 C 252.640 323.224,252.800 324.021,252.800 324.490 C 252.800 324.959,252.968 325.896,253.173 326.572 C 253.810 328.671,254.367 330.865,255.212 334.600 C 255.659 336.580,256.191 338.830,256.393 339.600 C 256.595 340.370,256.861 341.489,256.984 342.086 C 257.160 342.940,257.527 343.248,258.704 343.529 C 259.527 343.726,261.157 344.112,262.326 344.387 C 269.473 346.068,271.387 350.292,271.125 363.800 L 271.000 370.200 204.400 370.200 L 137.800 370.200 137.678 365.000 C 137.364 351.549,139.524 346.167,145.924 344.460 C 146.956 344.185,148.473 343.782,149.296 343.565 C 150.462 343.257,150.840 342.931,151.010 342.085 C 151.130 341.488,151.402 340.447,151.614 339.772 C 151.826 339.096,152.000 338.159,152.000 337.690 C 152.000 337.221,152.160 336.424,152.355 335.919 C 152.550 335.413,152.900 334.100,153.131 333.000 C 153.867 329.507,156.480 318.319,157.194 315.600 C 157.396 314.830,157.670 313.660,157.803 313.000 C 158.079 311.621,158.591 309.307,159.130 307.000 C 159.686 304.623,161.247 298.004,161.630 296.400 C 161.814 295.630,162.071 294.460,162.201 293.800 C 162.331 293.140,162.598 291.970,162.794 291.200 C 162.989 290.430,163.334 288.990,163.559 288.000 C 163.784 287.010,164.437 284.220,165.010 281.800 C 165.584 279.380,166.317 276.230,166.641 274.800 C 166.965 273.370,167.394 271.570,167.596 270.800 C 167.797 270.030,168.070 268.860,168.203 268.200 C 168.506 266.685,169.045 264.264,169.539 262.200 C 169.749 261.320,170.098 259.790,170.314 258.800 C 170.530 257.810,171.109 255.290,171.601 253.200 C 172.960 247.430,173.212 246.345,173.622 244.500 C 173.830 243.565,174.170 242.035,174.378 241.100 C 174.793 239.235,175.065 238.064,176.400 232.400 C 177.735 226.736,178.007 225.565,178.422 223.700 C 179.430 219.170,179.626 218.280,179.967 216.700 C 180.168 215.765,180.712 213.290,181.175 211.201 C 182.246 206.364,182.283 206.400,176.213 206.400 C 167.717 206.400,163.577 205.580,161.265 203.437 C 156.257 198.797,157.746 190.329,164.047 187.618 C 166.647 186.500,166.813 186.753,160.100 181.584 C 149.789 173.644,149.207 172.893,149.202 167.536 C 149.200 164.643,149.139 164.737,152.792 162.000 C 153.526 161.450,155.156 160.190,156.414 159.200 C 157.671 158.210,161.165 155.510,164.177 153.200 C 171.442 147.628,179.654 141.291,180.400 140.680 C 180.730 140.410,181.594 139.768,182.320 139.253 C 183.914 138.123,184.004 138.378,180.745 134.753 C 176.053 129.535,173.649 125.948,170.990 120.200 C 168.949 115.788,168.598 114.848,166.817 109.000 C 165.986 106.272,164.004 95.287,163.994 93.354 C 163.982 91.037,162.982 89.065,161.580 88.593 C 160.056 88.080,159.775 87.462,159.176 83.293 C 158.497 78.572,158.113 76.065,157.600 73.000 C 157.342 71.460,156.984 69.210,156.805 68.000 C 156.626 66.790,156.296 64.720,156.072 63.400 C 154.956 56.828,153.349 46.600,152.946 43.500 C 152.584 40.720,153.130 41.043,157.010 45.900 C 158.899 48.265,160.671 50.478,160.947 50.817 C 161.224 51.156,162.780 53.094,164.405 55.124 C 166.029 57.153,167.539 58.754,167.760 58.680 C 168.333 58.489,169.716 55.753,173.461 47.400 C 174.625 44.805,175.900 43.000,176.570 43.000 C 177.123 43.000,181.600 49.410,181.600 50.200 C 181.600 50.278,182.455 51.749,183.500 53.471 C 184.545 55.192,185.639 57.065,185.932 57.634 C 187.056 59.817,188.360 61.062,188.786 60.357 C 189.000 60.004,190.389 58.025,191.872 55.959 C 197.146 48.614,197.721 47.440,197.921 43.600 C 198.252 37.261,202.115 34.430,206.432 37.363 " stroke="none" fill="#050505" fill-rule="evenodd"></path><path id="path1" d="M200.519 37.184 C 198.701 38.293,198.124 39.718,197.921 43.600 C 197.721 47.440,197.146 48.614,191.872 55.959 C 190.389 58.025,189.000 60.004,188.786 60.357 C 188.360 61.062,187.056 59.817,185.932 57.634 C 185.639 57.065,184.545 55.192,183.500 53.471 C 182.455 51.749,181.600 50.278,181.600 50.200 C 181.600 49.410,177.123 43.000,176.570 43.000 C 175.900 43.000,174.625 44.805,173.461 47.400 C 169.716 55.753,168.333 58.489,167.760 58.680 C 167.539 58.754,166.029 57.153,164.405 55.124 C 162.780 53.094,161.224 51.156,160.947 50.817 C 160.671 50.478,158.899 48.265,157.010 45.900 C 153.130 41.043,152.584 40.720,152.946 43.500 C 153.349 46.600,154.956 56.828,156.072 63.400 C 156.296 64.720,156.626 66.790,156.805 68.000 C 156.984 69.210,157.342 71.460,157.600 73.000 C 158.113 76.065,158.497 78.572,159.176 83.293 C 159.775 87.462,160.056 88.080,161.580 88.593 C 162.982 89.065,163.982 91.037,163.994 93.354 C 164.004 95.287,165.986 106.272,166.817 109.000 C 168.598 114.848,168.949 115.788,170.990 120.200 C 173.649 125.948,176.053 129.535,180.745 134.753 C 184.004 138.378,183.914 138.123,182.320 139.253 C 181.594 139.768,180.730 140.410,180.400 140.680 C 179.654 141.291,171.442 147.628,164.177 153.200 C 161.165 155.510,157.671 158.210,156.414 159.200 C 155.156 160.190,153.526 161.450,152.792 162.000 C 149.139 164.737,149.200 164.643,149.202 167.536 C 149.207 172.893,149.789 173.644,160.100 181.584 C 166.813 186.753,166.647 186.500,164.047 187.618 C 157.746 190.329,156.257 198.797,161.265 203.437 C 163.577 205.580,167.717 206.400,176.213 206.400 C 182.283 206.400,182.246 206.364,181.175 211.201 C 180.712 213.290,180.168 215.765,179.967 216.700 C 179.765 217.635,179.420 219.210,179.200 220.200 C 177.907 226.019,178.018 225.533,176.400 232.400 C 175.065 238.064,174.793 239.235,174.378 241.100 C 174.170 242.035,173.830 243.565,173.622 244.500 C 173.212 246.345,172.960 247.430,171.601 253.200 C 171.109 255.290,170.530 257.810,170.314 258.800 C 170.098 259.790,169.749 261.320,169.539 262.200 C 169.045 264.264,168.506 266.685,168.203 268.200 C 168.070 268.860,167.797 270.030,167.596 270.800 C 167.394 271.570,166.965 273.370,166.641 274.800 C 166.317 276.230,165.584 279.380,165.010 281.800 C 164.437 284.220,163.784 287.010,163.559 288.000 C 163.334 288.990,162.989 290.430,162.794 291.200 C 162.598 291.970,162.331 293.140,162.201 293.800 C 162.071 294.460,161.814 295.630,161.630 296.400 C 161.247 298.004,159.686 304.623,159.130 307.000 C 158.591 309.307,158.079 311.621,157.803 313.000 C 157.670 313.660,157.396 314.830,157.194 315.600 C 156.480 318.319,153.867 329.507,153.131 333.000 C 152.900 334.100,152.550 335.413,152.355 335.919 C 152.160 336.424,152.000 337.221,152.000 337.690 C 152.000 338.159,151.826 339.096,151.614 339.772 C 151.402 340.447,151.130 341.488,151.010 342.085 C 150.840 342.931,150.462 343.257,149.296 343.565 C 148.473 343.782,146.956 344.185,145.924 344.460 C 139.524 346.167,137.364 351.549,137.678 365.000 L 137.800 370.200 204.400 370.200 L 271.000 370.200 271.125 363.800 C 271.387 350.292,269.473 346.068,262.326 344.387 C 261.157 344.112,259.527 343.726,258.704 343.529 C 257.527 343.248,257.160 342.940,256.984 342.086 C 256.861 341.489,256.595 340.370,256.393 339.600 C 256.191 338.830,255.659 336.580,255.212 334.600 C 254.367 330.865,253.810 328.671,253.173 326.572 C 252.968 325.896,252.800 324.959,252.800 324.490 C 252.800 324.021,252.640 323.224,252.445 322.719 C 252.250 322.213,251.882 320.810,251.628 319.600 C 251.374 318.390,251.001 316.770,250.800 316.000 C 250.598 315.230,249.881 312.260,249.206 309.400 C 248.531 306.540,247.804 303.647,247.589 302.972 C 247.375 302.296,247.200 301.409,247.200 301.000 C 247.200 300.591,247.032 299.704,246.827 299.028 C 246.307 297.315,245.730 295.043,245.041 292.000 C 244.234 288.434,242.452 280.904,242.012 279.200 C 241.813 278.430,241.448 276.900,241.200 275.800 C 240.952 274.700,240.587 273.170,240.389 272.400 C 240.191 271.630,239.765 269.830,239.441 268.400 C 238.634 264.834,236.852 257.304,236.412 255.600 C 236.213 254.830,235.848 253.300,235.600 252.200 C 235.352 251.100,234.985 249.570,234.785 248.800 C 234.584 248.030,234.033 245.690,233.559 243.600 C 233.085 241.510,232.432 238.810,232.107 237.600 C 231.558 235.558,231.209 234.026,230.603 231.000 C 230.470 230.340,230.199 229.170,230.000 228.400 C 229.801 227.630,229.269 225.425,228.819 223.500 C 228.369 221.575,227.631 218.425,227.181 216.500 C 226.731 214.575,226.199 212.370,225.999 211.600 C 224.654 206.416,224.655 206.415,231.000 206.403 C 245.265 206.375,249.600 203.957,249.600 196.029 C 249.600 191.839,247.605 189.183,242.946 187.171 L 241.000 186.330 242.400 185.144 C 243.170 184.492,244.790 183.205,246.000 182.285 C 257.320 173.675,257.600 173.337,257.600 168.287 L 257.600 164.497 253.900 161.691 C 251.865 160.148,248.760 157.770,247.000 156.407 C 243.998 154.083,241.459 152.122,235.861 147.800 C 234.574 146.806,231.289 144.277,228.561 142.178 C 222.699 137.668,222.873 138.359,226.597 134.377 C 235.053 125.336,240.243 113.316,242.392 97.800 C 243.107 92.638,243.567 90.677,244.542 88.632 C 245.572 86.473,246.085 84.750,246.757 81.200 C 246.986 79.990,247.279 78.460,247.409 77.800 C 247.539 77.140,247.806 75.700,248.003 74.600 C 248.199 73.500,248.735 70.530,249.192 68.000 C 249.650 65.470,250.207 62.230,250.430 60.800 C 251.029 56.958,251.617 53.283,252.029 50.800 C 252.231 49.590,252.550 47.321,252.739 45.757 C 252.928 44.193,253.202 42.720,253.348 42.484 C 253.494 42.248,253.447 41.953,253.244 41.827 C 252.830 41.571,251.148 43.541,246.781 49.398 C 245.141 51.597,243.620 53.600,243.400 53.849 C 243.180 54.098,242.280 55.313,241.400 56.549 C 239.388 59.375,239.531 59.419,238.007 55.500 C 237.301 53.685,236.561 51.795,236.362 51.300 C 236.163 50.805,235.838 49.995,235.641 49.500 C 233.912 45.168,231.971 41.200,231.580 41.200 C 231.029 41.200,227.222 47.227,223.678 53.711 C 221.664 57.395,219.179 60.859,218.669 60.693 C 217.554 60.329,211.175 52.059,208.987 48.140 L 207.953 46.287 208.846 44.087 L 209.739 41.887 208.794 40.107 C 206.988 36.703,203.392 35.432,200.519 37.184 " stroke="none" fill="#fbfbfb" fill-rule="evenodd"></path></g></svg>