<svg id="svg" version="1.1" xmlns="http://www.w3.org/2000/svg" xmlns:xlink="http://www.w3.org/1999/xlink" width="400" height="400" viewBox="0, 0, 400,400"><g id="svgg"><path id="path0" d="M181.200 13.600 C 181.200 13.820,180.840 14.000,180.400 14.000 C 179.960 14.000,179.600 14.180,179.600 14.400 C 179.600 14.620,179.317 14.800,178.971 14.800 C 178.163 14.800,177.200 15.763,177.200 16.571 C 177.200 16.917,177.020 17.200,176.800 17.200 C 176.580 17.200,176.400 17.560,176.400 18.000 C 176.400 18.440,176.220 18.800,176.000 18.800 C 175.744 18.800,175.600 22.400,175.600 28.800 L 175.600 38.800 165.600 38.800 C 159.200 38.800,155.600 38.944,155.600 39.200 C 155.600 39.420,155.240 39.600,154.800 39.600 C 154.360 39.600,154.000 39.780,154.000 40.000 C 154.000 40.220,153.717 40.400,153.371 40.400 C 153.026 40.400,152.486 40.657,152.171 40.971 C 151.857 41.286,151.600 41.826,151.600 42.171 C 151.600 42.517,151.420 42.800,151.200 42.800 C 150.980 42.800,150.800 43.160,150.800 43.600 C 150.800 44.040,150.620 44.400,150.400 44.400 C 150.140 44.400,150.000 50.400,150.000 61.600 C 150.000 72.800,150.140 78.800,150.400 78.800 C 150.620 78.800,150.800 79.160,150.800 79.600 C 150.800 80.040,150.980 80.400,151.200 80.400 C 151.420 80.400,151.600 80.683,151.600 81.029 C 151.600 81.837,152.563 82.800,153.371 82.800 C 153.717 82.800,154.000 82.980,154.000 83.200 C 154.000 83.420,154.360 83.600,154.800 83.600 C 155.240 83.600,155.600 83.780,155.600 84.000 C 155.600 84.256,159.200 84.400,165.600 84.400 L 175.600 84.400 175.600 88.952 L 175.600 93.504 174.100 95.064 C 173.275 95.922,172.086 97.307,171.457 98.142 C 170.828 98.976,169.703 100.270,168.957 101.016 C 168.211 101.763,167.600 102.544,167.600 102.752 C 167.600 102.960,166.520 104.227,165.200 105.568 C 163.880 106.908,162.800 108.157,162.800 108.342 C 162.800 108.526,161.720 109.813,160.400 111.200 C 159.080 112.587,158.000 113.886,158.000 114.087 C 158.000 114.288,157.140 115.295,156.089 116.326 C 155.038 117.357,153.736 118.830,153.196 119.600 C 152.655 120.370,151.645 121.572,150.950 122.270 C 150.255 122.969,149.172 124.229,148.544 125.070 C 147.916 125.912,146.951 127.050,146.400 127.600 C 145.849 128.150,144.884 129.288,144.256 130.130 C 143.628 130.971,142.503 132.270,141.757 133.016 C 141.011 133.763,140.400 134.541,140.400 134.746 C 140.400 134.951,139.500 136.038,138.400 137.161 C 137.300 138.285,136.400 139.473,136.400 139.802 C 136.400 140.131,136.220 140.400,136.000 140.400 C 135.780 140.400,135.600 140.760,135.600 141.200 C 135.600 141.640,135.420 142.000,135.200 142.000 C 134.944 142.000,134.800 145.586,134.800 151.959 L 134.800 161.919 135.984 164.170 C 136.636 165.408,138.076 167.305,139.184 168.385 C 140.293 169.465,141.200 170.524,141.200 170.739 C 141.200 170.954,142.280 172.227,143.600 173.568 C 144.920 174.908,146.000 176.160,146.000 176.349 C 146.000 176.538,147.260 178.001,148.800 179.600 C 151.593 182.500,152.183 183.600,150.947 183.600 C 149.421 183.600,144.400 190.545,144.400 192.656 C 144.400 192.955,144.220 193.200,144.000 193.200 C 143.752 193.200,143.600 195.392,143.600 198.976 C 143.600 202.396,143.763 204.854,144.000 205.000 C 144.220 205.136,144.400 205.597,144.400 206.024 C 144.400 206.451,144.580 206.800,144.800 206.800 C 145.020 206.800,145.200 207.160,145.200 207.600 C 145.200 208.040,145.380 208.400,145.600 208.400 C 145.820 208.400,146.000 208.760,146.000 209.200 C 146.000 209.640,146.180 210.000,146.400 210.000 C 146.620 210.000,146.800 210.291,146.800 210.646 C 146.800 211.393,149.503 214.000,150.278 214.000 C 150.565 214.000,150.800 214.180,150.800 214.400 C 150.800 214.620,151.160 214.800,151.600 214.800 C 152.040 214.800,152.400 214.980,152.400 215.200 C 152.400 215.420,152.760 215.600,153.200 215.600 C 153.640 215.600,154.000 215.780,154.000 216.000 C 154.000 216.220,154.720 216.400,155.600 216.400 C 156.480 216.400,157.200 216.580,157.200 216.800 C 157.200 217.020,158.055 217.211,159.100 217.224 C 163.689 217.281,165.666 217.961,164.885 219.213 C 164.618 219.640,164.400 220.521,164.400 221.171 C 164.400 221.821,164.220 222.464,164.000 222.600 C 163.780 222.736,163.600 223.366,163.600 224.000 C 163.600 224.634,163.420 225.264,163.200 225.400 C 162.980 225.536,162.800 226.346,162.800 227.200 C 162.800 228.054,162.620 228.864,162.400 229.000 C 162.180 229.136,162.000 229.957,162.000 230.824 C 162.000 231.691,161.820 232.400,161.600 232.400 C 161.380 232.400,161.200 233.300,161.200 234.400 C 161.200 235.500,161.020 236.400,160.800 236.400 C 160.580 236.400,160.400 237.199,160.400 238.176 C 160.400 239.153,160.220 240.064,160.000 240.200 C 159.780 240.336,159.600 241.157,159.600 242.024 C 159.600 242.891,159.420 243.600,159.200 243.600 C 158.980 243.600,158.800 244.219,158.800 244.976 C 158.800 245.733,158.620 246.464,158.400 246.600 C 158.180 246.736,158.000 247.366,158.000 248.000 C 158.000 248.634,157.820 249.264,157.600 249.400 C 157.380 249.536,157.200 250.447,157.200 251.424 C 157.200 252.401,157.020 253.200,156.800 253.200 C 156.580 253.200,156.400 254.100,156.400 255.200 C 156.400 256.300,156.220 257.200,156.000 257.200 C 155.780 257.200,155.600 257.920,155.600 258.800 C 155.600 259.680,155.420 260.400,155.200 260.400 C 154.980 260.400,154.800 261.300,154.800 262.400 C 154.800 263.500,154.620 264.400,154.400 264.400 C 154.180 264.400,154.000 265.109,154.000 265.976 C 154.000 266.843,153.820 267.664,153.600 267.800 C 153.380 267.936,153.200 268.566,153.200 269.200 C 153.200 269.834,153.020 270.464,152.800 270.600 C 152.580 270.736,152.400 271.456,152.400 272.200 C 152.400 272.944,152.220 273.664,152.000 273.800 C 151.780 273.936,151.600 274.746,151.600 275.600 C 151.600 276.454,151.420 277.264,151.200 277.400 C 150.980 277.536,150.800 278.447,150.800 279.424 C 150.800 280.401,150.620 281.200,150.400 281.200 C 150.180 281.200,150.000 282.100,150.000 283.200 C 150.000 284.300,149.820 285.200,149.600 285.200 C 149.380 285.200,149.200 285.920,149.200 286.800 C 149.200 287.680,149.020 288.400,148.800 288.400 C 148.580 288.400,148.392 288.895,148.382 289.500 C 148.361 290.800,147.496 294.238,147.086 294.647 C 146.929 294.805,146.800 295.613,146.800 296.443 C 146.800 297.273,146.620 298.064,146.400 298.200 C 146.180 298.336,146.000 299.247,146.000 300.224 C 146.000 301.201,145.820 302.000,145.600 302.000 C 145.380 302.000,145.200 302.720,145.200 303.600 C 145.200 304.480,145.020 305.200,144.800 305.200 C 144.580 305.200,144.400 306.100,144.400 307.200 C 144.400 308.300,144.220 309.200,144.000 309.200 C 143.780 309.200,143.600 309.909,143.600 310.776 C 143.600 311.643,143.440 312.452,143.244 312.573 C 142.908 312.781,142.785 313.276,142.167 316.904 C 142.027 317.731,141.751 318.506,141.556 318.627 C 141.360 318.748,141.200 319.546,141.200 320.400 C 141.200 321.254,141.020 322.064,140.800 322.200 C 140.580 322.336,140.400 323.247,140.400 324.224 C 140.400 325.201,140.220 326.000,140.000 326.000 C 139.780 326.000,139.600 326.799,139.600 327.776 C 139.600 328.753,139.420 329.664,139.200 329.800 C 138.980 329.936,138.800 330.757,138.800 331.624 C 138.800 332.491,138.620 333.200,138.400 333.200 C 138.180 333.200,138.000 334.100,138.000 335.200 C 138.000 336.300,137.820 337.200,137.600 337.200 C 137.380 337.200,137.200 337.560,137.200 338.000 C 137.200 338.622,136.933 338.800,136.000 338.800 C 135.340 338.800,134.800 338.980,134.800 339.200 C 134.800 339.420,134.440 339.600,134.000 339.600 C 133.560 339.600,133.200 339.780,133.200 340.000 C 133.200 340.220,132.840 340.400,132.400 340.400 C 131.960 340.400,131.600 340.580,131.600 340.800 C 131.600 341.020,131.344 341.200,131.032 341.200 C 130.292 341.200,126.800 344.692,126.800 345.432 C 126.800 345.744,126.620 346.000,126.400 346.000 C 126.180 346.000,126.000 346.360,126.000 346.800 C 126.000 347.240,125.820 347.600,125.600 347.600 C 125.380 347.600,125.200 347.960,125.200 348.400 C 125.200 348.840,125.020 349.200,124.800 349.200 C 124.580 349.200,124.400 349.639,124.400 350.176 C 124.400 350.713,124.220 351.264,124.000 351.400 C 123.780 351.536,123.600 352.886,123.600 354.400 C 123.600 355.914,123.420 357.264,123.200 357.400 C 122.953 357.553,122.800 361.071,122.800 366.624 C 122.800 372.341,122.945 375.600,123.200 375.600 C 123.420 375.600,123.600 375.960,123.600 376.400 C 123.600 376.840,123.780 377.200,124.000 377.200 C 124.220 377.200,124.400 377.483,124.400 377.829 C 124.400 378.712,125.069 379.267,127.640 380.513 L 129.880 381.600 198.400 381.600 L 266.920 381.600 269.160 380.513 C 271.731 379.267,272.400 378.712,272.400 377.829 C 272.400 377.483,272.580 377.200,272.800 377.200 C 273.020 377.200,273.200 376.840,273.200 376.400 C 273.200 375.960,273.380 375.600,273.600 375.600 C 273.856 375.600,274.000 371.867,274.000 365.200 C 274.000 358.533,273.856 354.800,273.600 354.800 C 273.380 354.800,273.200 353.900,273.200 352.800 C 273.200 351.700,273.020 350.800,272.800 350.800 C 272.580 350.800,272.400 350.260,272.400 349.600 C 272.400 348.940,272.220 348.400,272.000 348.400 C 271.780 348.400,271.600 348.040,271.600 347.600 C 271.600 347.160,271.420 346.800,271.200 346.800 C 270.980 346.800,270.800 346.526,270.800 346.191 C 270.800 344.465,263.071 338.800,260.715 338.800 C 259.792 338.800,258.800 337.894,258.800 337.052 C 258.800 336.719,258.620 336.336,258.400 336.200 C 258.180 336.064,258.000 335.333,258.000 334.576 C 258.000 333.819,257.820 333.200,257.600 333.200 C 257.380 333.200,257.200 332.491,257.200 331.624 C 257.200 330.757,257.020 329.936,256.800 329.800 C 256.580 329.664,256.400 328.753,256.400 327.776 C 256.400 326.799,256.220 326.000,256.000 326.000 C 255.780 326.000,255.600 325.291,255.600 324.424 C 255.600 323.557,255.420 322.736,255.200 322.600 C 254.980 322.464,254.800 321.654,254.800 320.800 C 254.800 319.946,254.639 319.148,254.442 319.026 C 254.245 318.905,253.986 318.129,253.865 317.303 C 253.449 314.460,253.108 313.200,252.755 313.200 C 252.560 313.200,252.400 312.491,252.400 311.624 C 252.400 310.757,252.220 309.936,252.000 309.800 C 251.780 309.664,251.600 308.753,251.600 307.776 C 251.600 306.799,251.420 306.000,251.200 306.000 C 250.980 306.000,250.800 305.291,250.800 304.424 C 250.800 303.557,250.620 302.736,250.400 302.600 C 250.180 302.464,250.000 301.553,250.000 300.576 C 250.000 299.599,249.820 298.800,249.600 298.800 C 249.380 298.800,249.200 298.091,249.200 297.224 C 249.200 296.357,249.040 295.548,248.844 295.427 C 248.649 295.306,248.373 294.531,248.233 293.704 C 247.615 290.076,247.492 289.581,247.156 289.373 C 246.960 289.252,246.800 288.443,246.800 287.576 C 246.800 286.709,246.620 286.000,246.400 286.000 C 246.180 286.000,246.000 285.291,246.000 284.424 C 246.000 283.557,245.820 282.736,245.600 282.600 C 245.380 282.464,245.200 281.553,245.200 280.576 C 245.200 279.599,245.020 278.800,244.800 278.800 C 244.580 278.800,244.400 278.091,244.400 277.224 C 244.400 276.357,244.220 275.536,244.000 275.400 C 243.780 275.264,243.600 274.454,243.600 273.600 C 243.600 272.746,243.420 271.936,243.200 271.800 C 242.980 271.664,242.800 271.034,242.800 270.400 C 242.800 269.766,242.620 269.136,242.400 269.000 C 242.180 268.864,242.000 268.133,242.000 267.376 C 242.000 266.619,241.820 266.000,241.600 266.000 C 241.380 266.000,241.200 265.201,241.200 264.224 C 241.200 263.247,241.020 262.336,240.800 262.200 C 240.580 262.064,240.400 261.243,240.400 260.376 C 240.400 259.509,240.220 258.800,240.000 258.800 C 239.780 258.800,239.600 258.001,239.600 257.024 C 239.600 256.047,239.420 255.136,239.200 255.000 C 238.980 254.864,238.800 254.144,238.800 253.400 C 238.800 252.656,238.639 251.948,238.442 251.826 C 238.245 251.705,237.986 250.929,237.865 250.103 C 237.449 247.260,237.108 246.000,236.755 246.000 C 236.560 246.000,236.400 245.201,236.400 244.224 C 236.400 243.247,236.220 242.336,236.000 242.200 C 235.780 242.064,235.600 241.243,235.600 240.376 C 235.600 239.509,235.420 238.800,235.200 238.800 C 234.980 238.800,234.800 238.001,234.800 237.024 C 234.800 236.047,234.620 235.136,234.400 235.000 C 234.180 234.864,234.000 234.043,234.000 233.176 C 234.000 232.309,233.820 231.600,233.600 231.600 C 233.380 231.600,233.200 230.801,233.200 229.824 C 233.200 228.847,233.020 227.936,232.800 227.800 C 232.580 227.664,232.400 227.034,232.400 226.400 C 232.400 225.766,232.220 225.136,232.000 225.000 C 231.780 224.864,231.600 224.133,231.600 223.376 C 231.600 222.619,231.420 222.000,231.200 222.000 C 230.980 222.000,230.800 221.291,230.800 220.424 C 230.800 219.557,230.582 218.713,230.316 218.548 C 229.613 218.114,231.618 217.648,235.514 217.341 C 237.336 217.197,238.922 216.927,239.037 216.740 C 239.153 216.553,239.867 216.400,240.624 216.400 C 241.381 216.400,242.000 216.220,242.000 216.000 C 242.000 215.780,242.360 215.600,242.800 215.600 C 243.240 215.600,243.600 215.420,243.600 215.200 C 243.600 214.980,243.960 214.800,244.400 214.800 C 244.840 214.800,245.200 214.620,245.200 214.400 C 245.200 214.180,245.476 214.000,245.813 214.000 C 246.609 214.000,249.200 211.409,249.200 210.613 C 249.200 210.276,249.380 210.000,249.600 210.000 C 249.820 210.000,250.000 209.640,250.000 209.200 C 250.000 208.760,250.180 208.400,250.400 208.400 C 250.620 208.400,250.800 208.040,250.800 207.600 C 250.800 207.160,250.980 206.800,251.200 206.800 C 251.420 206.800,251.600 206.440,251.600 206.000 C 251.600 205.560,251.780 205.200,252.000 205.200 C 252.249 205.200,252.400 202.933,252.400 199.200 C 252.400 195.467,252.249 193.200,252.000 193.200 C 251.780 193.200,251.600 192.660,251.600 192.000 C 251.600 191.340,251.420 190.800,251.200 190.800 C 250.980 190.800,250.800 190.440,250.800 190.000 C 250.800 189.560,250.620 189.200,250.400 189.200 C 250.180 189.200,250.000 188.855,250.000 188.433 C 250.000 188.012,249.865 187.607,249.700 187.533 C 249.535 187.460,248.896 186.725,248.280 185.900 C 247.663 185.075,246.898 184.400,246.580 184.400 C 246.261 184.400,246.000 184.220,246.000 184.000 C 246.000 183.780,245.717 183.600,245.371 183.600 C 243.310 183.600,243.592 182.516,246.412 179.587 C 247.946 177.995,249.200 176.542,249.200 176.359 C 249.200 176.176,250.280 174.905,251.600 173.535 C 252.920 172.165,254.000 170.903,254.000 170.731 C 254.000 170.559,254.986 169.401,256.190 168.157 C 260.266 163.949,260.400 163.433,260.400 151.921 C 260.400 145.574,260.256 142.000,260.000 142.000 C 259.780 142.000,259.600 141.640,259.600 141.200 C 259.600 140.760,259.420 140.400,259.200 140.400 C 258.980 140.400,258.800 140.131,258.800 139.802 C 258.800 139.473,257.900 138.285,256.800 137.161 C 255.700 136.038,254.800 134.958,254.800 134.762 C 254.800 134.566,253.720 133.308,252.400 131.968 C 251.080 130.627,250.000 129.360,250.000 129.152 C 250.000 128.944,249.389 128.163,248.643 127.416 C 247.897 126.670,246.772 125.371,246.144 124.530 C 245.516 123.688,244.545 122.550,243.986 122.000 C 243.427 121.450,242.532 120.370,241.997 119.600 C 241.463 118.830,240.384 117.570,239.600 116.800 C 238.816 116.030,237.732 114.772,237.193 114.005 C 236.653 113.238,235.353 111.735,234.305 110.665 C 233.257 109.595,232.400 108.558,232.400 108.362 C 232.400 108.166,231.320 106.908,230.000 105.568 C 228.680 104.227,227.600 102.954,227.600 102.739 C 227.600 102.524,226.700 101.471,225.600 100.400 C 224.500 99.329,223.600 98.282,223.600 98.074 C 223.600 97.866,222.880 96.955,222.000 96.048 L 220.400 94.399 220.400 89.400 L 220.400 84.400 230.000 84.400 C 236.133 84.400,239.600 84.256,239.600 84.000 C 239.600 83.780,239.960 83.600,240.400 83.600 C 240.840 83.600,241.200 83.420,241.200 83.200 C 241.200 82.980,241.483 82.800,241.829 82.800 C 242.637 82.800,243.600 81.837,243.600 81.029 C 243.600 80.683,243.780 80.400,244.000 80.400 C 244.220 80.400,244.400 80.040,244.400 79.600 C 244.400 79.160,244.580 78.800,244.800 78.800 C 245.060 78.800,245.200 72.800,245.200 61.600 C 245.200 50.400,245.060 44.400,244.800 44.400 C 244.580 44.400,244.400 44.040,244.400 43.600 C 244.400 43.160,244.220 42.800,244.000 42.800 C 243.780 42.800,243.600 42.517,243.600 42.171 C 243.600 41.363,242.637 40.400,241.829 40.400 C 241.483 40.400,241.200 40.220,241.200 40.000 C 241.200 39.780,240.840 39.600,240.400 39.600 C 239.960 39.600,239.600 39.420,239.600 39.200 C 239.600 38.944,236.133 38.800,230.000 38.800 L 220.400 38.800 220.400 28.800 C 220.400 22.400,220.256 18.800,220.000 18.800 C 219.780 18.800,219.600 18.440,219.600 18.000 C 219.600 17.560,219.420 17.200,219.200 17.200 C 218.980 17.200,218.800 16.917,218.800 16.571 C 218.800 15.763,217.837 14.800,217.029 14.800 C 216.683 14.800,216.400 14.620,216.400 14.400 C 216.400 14.180,216.040 14.000,215.600 14.000 C 215.160 14.000,214.800 13.820,214.800 13.600 C 214.800 13.340,208.933 13.200,198.000 13.200 C 187.067 13.200,181.200 13.340,181.200 13.600 M211.906 34.694 L 212.011 47.188 224.106 47.294 L 236.200 47.400 236.200 61.400 L 236.200 75.400 224.200 75.600 L 212.200 75.800 212.113 87.400 L 212.025 99.000 218.913 107.034 C 224.933 114.057,235.847 126.889,239.400 131.122 C 240.060 131.909,242.765 135.083,245.410 138.176 C 252.642 146.631,252.003 145.467,251.979 150.154 C 251.955 155.036,251.490 159.559,250.976 159.929 C 250.769 160.078,249.610 161.370,248.400 162.800 C 247.190 164.230,245.815 165.850,245.345 166.400 C 244.874 166.950,241.644 170.730,238.166 174.800 C 234.688 178.870,231.743 182.290,231.621 182.400 C 230.667 183.263,226.800 188.004,226.800 188.311 C 226.800 188.693,228.491 188.974,233.600 189.444 C 241.774 190.196,246.007 196.042,243.173 202.667 C 241.088 207.540,238.954 208.380,227.719 208.748 C 218.373 209.055,218.754 208.822,219.910 213.498 C 220.387 215.424,221.145 218.620,221.595 220.600 C 222.045 222.580,222.590 224.753,222.807 225.428 C 223.023 226.104,223.200 226.991,223.200 227.400 C 223.200 227.809,223.377 228.696,223.593 229.372 C 223.960 230.521,225.289 236.027,226.641 242.000 C 226.965 243.430,227.394 245.230,227.596 246.000 C 227.797 246.770,228.069 247.940,228.199 248.600 C 228.329 249.260,228.608 250.475,228.818 251.300 C 229.028 252.125,229.356 253.475,229.546 254.300 C 229.737 255.125,230.481 258.230,231.200 261.200 C 232.854 268.033,233.110 269.125,233.401 270.600 C 233.624 271.728,233.848 272.649,234.785 276.300 C 234.997 277.125,235.435 278.970,235.759 280.400 C 236.566 283.966,238.348 291.496,238.788 293.200 C 238.987 293.970,239.352 295.500,239.600 296.600 C 239.848 297.700,240.212 299.230,240.409 300.000 C 240.606 300.770,241.322 303.740,242.000 306.600 C 242.678 309.460,243.397 312.430,243.597 313.200 C 243.798 313.970,244.069 315.140,244.199 315.800 C 244.329 316.460,244.600 317.630,244.800 318.400 C 245.000 319.170,245.271 320.340,245.401 321.000 C 245.531 321.660,245.808 322.830,246.016 323.600 C 246.224 324.370,246.938 327.340,247.602 330.200 C 248.266 333.060,248.988 335.953,249.205 336.628 C 249.422 337.304,249.600 338.191,249.600 338.600 C 249.600 339.009,249.773 339.896,249.984 340.572 C 250.195 341.247,250.599 342.669,250.881 343.731 C 251.511 346.106,251.552 346.137,255.000 346.784 C 263.465 348.373,265.241 351.704,265.351 366.200 L 265.400 372.600 198.600 372.600 L 131.800 372.600 131.683 369.251 C 131.143 353.777,133.627 348.368,142.067 346.647 C 144.613 346.127,145.575 344.892,145.594 342.119 C 145.597 341.634,145.760 340.824,145.955 340.319 C 146.150 339.813,146.500 338.500,146.731 337.400 C 147.467 333.907,150.080 322.719,150.794 320.000 C 150.996 319.230,151.270 318.060,151.403 317.400 C 151.828 315.277,152.247 313.440,154.000 306.000 C 155.320 300.399,155.606 299.168,156.000 297.400 C 156.196 296.520,156.528 295.080,156.739 294.200 C 156.949 293.320,157.328 291.700,157.580 290.600 C 157.833 289.500,158.189 287.970,158.372 287.200 C 158.820 285.315,160.405 278.586,160.870 276.600 C 161.075 275.720,161.414 274.235,161.622 273.300 C 161.830 272.365,162.170 270.835,162.378 269.900 C 162.793 268.035,163.065 266.864,164.400 261.200 C 165.735 255.536,166.007 254.365,166.422 252.500 C 166.630 251.565,166.970 250.035,167.178 249.100 C 167.386 248.165,167.728 246.680,167.939 245.800 C 168.149 244.920,168.498 243.390,168.714 242.400 C 168.930 241.410,169.509 238.890,170.001 236.800 C 171.360 231.030,171.612 229.945,172.022 228.100 C 172.230 227.165,172.570 225.635,172.778 224.700 C 172.986 223.765,173.328 222.280,173.538 221.400 C 173.748 220.520,174.136 218.810,174.400 217.600 C 174.664 216.390,175.044 214.680,175.243 213.800 C 176.386 208.761,176.440 208.800,168.187 208.800 C 159.788 208.800,156.007 207.672,153.983 204.562 C 149.367 197.469,153.388 190.240,162.400 189.434 C 166.206 189.094,168.400 188.707,168.400 188.376 C 168.400 188.200,162.932 181.682,156.248 173.892 C 141.741 156.983,143.198 159.436,143.211 151.926 L 143.222 145.800 146.511 141.974 C 148.320 139.869,150.610 137.176,151.600 135.988 C 153.410 133.816,156.026 130.772,156.402 130.400 C 156.513 130.290,158.492 127.950,160.800 125.200 C 163.108 122.450,165.382 119.750,165.853 119.200 C 166.324 118.650,168.943 115.590,171.674 112.400 C 174.405 109.210,178.298 104.625,180.326 102.211 L 184.012 97.822 183.906 86.811 L 183.800 75.800 171.400 75.600 L 159.000 75.400 159.000 61.400 L 159.000 47.400 171.500 47.294 L 184.000 47.189 184.000 34.861 C 184.000 28.081,184.122 22.411,184.272 22.262 C 184.421 22.112,190.676 22.037,198.172 22.095 L 211.800 22.200 211.906 34.694 " stroke="none" fill="#050505" fill-rule="evenodd"></path><path id="path1" d="M184.272 22.262 C 184.122 22.411,184.000 28.081,184.000 34.861 L 184.000 47.189 171.500 47.294 L 159.000 47.400 159.000 61.400 L 159.000 75.400 171.400 75.600 L 183.800 75.800 183.906 86.811 L 184.012 97.822 180.326 102.211 C 178.298 104.625,174.405 109.210,171.674 112.400 C 168.943 115.590,166.324 118.650,165.853 119.200 C 165.382 119.750,163.108 122.450,160.800 125.200 C 158.492 127.950,156.513 130.290,156.402 130.400 C 156.026 130.772,153.410 133.816,151.600 135.988 C 150.610 137.176,148.320 139.869,146.511 141.974 L 143.222 145.800 143.211 151.926 C 143.198 159.436,141.741 156.983,156.248 173.892 C 162.932 181.682,168.400 188.200,168.400 188.376 C 168.400 188.707,166.206 189.094,162.400 189.434 C 153.388 190.240,149.367 197.469,153.983 204.562 C 156.007 207.672,159.788 208.800,168.187 208.800 C 176.440 208.800,176.386 208.761,175.243 213.800 C 175.044 214.680,174.664 216.390,174.400 217.600 C 174.136 218.810,173.748 220.520,173.538 221.400 C 173.328 222.280,172.986 223.765,172.778 224.700 C 172.570 225.635,172.230 227.165,172.022 228.100 C 171.612 229.945,171.360 231.030,170.001 236.800 C 169.509 238.890,168.930 241.410,168.714 242.400 C 168.498 243.390,168.149 244.920,167.939 245.800 C 167.728 246.680,167.386 248.165,167.178 249.100 C 166.970 250.035,166.630 251.565,166.422 252.500 C 166.007 254.365,165.735 255.536,164.400 261.200 C 163.065 266.864,162.793 268.035,162.378 269.900 C 162.170 270.835,161.830 272.365,161.622 273.300 C 161.414 274.235,161.075 275.720,160.870 276.600 C 160.405 278.586,158.820 285.315,158.372 287.200 C 158.189 287.970,157.833 289.500,157.580 290.600 C 157.328 291.700,156.949 293.320,156.739 294.200 C 156.528 295.080,156.196 296.520,156.000 297.400 C 155.606 299.168,155.320 300.399,154.000 306.000 C 152.247 313.440,151.828 315.277,151.403 317.400 C 151.270 318.060,150.996 319.230,150.794 320.000 C 150.080 322.719,147.467 333.907,146.731 337.400 C 146.500 338.500,146.150 339.813,145.955 340.319 C 145.760 340.824,145.597 341.634,145.594 342.119 C 145.575 344.892,144.613 346.127,142.067 346.647 C 133.627 348.368,131.143 353.777,131.683 369.251 L 131.800 372.600 198.600 372.600 L 265.400 372.600 265.351 366.200 C 265.241 351.704,263.465 348.373,255.000 346.784 C 251.552 346.137,251.511 346.106,250.881 343.731 C 250.599 342.669,250.195 341.247,249.984 340.572 C 249.773 339.896,249.600 339.009,249.600 338.600 C 249.600 338.191,249.422 337.304,249.205 336.628 C 248.988 335.953,248.266 333.060,247.602 330.200 C 246.938 327.340,246.224 324.370,246.016 323.600 C 245.808 322.830,245.531 321.660,245.401 321.000 C 245.271 320.340,245.000 319.170,244.800 318.400 C 244.600 317.630,244.329 316.460,244.199 315.800 C 244.069 315.140,243.798 313.970,243.597 313.200 C 243.397 312.430,242.678 309.460,242.000 306.600 C 241.322 303.740,240.606 300.770,240.409 300.000 C 240.212 299.230,239.848 297.700,239.600 296.600 C 239.352 295.500,238.987 293.970,238.788 293.200 C 238.348 291.496,236.566 283.966,235.759 280.400 C 235.435 278.970,234.997 277.125,234.785 276.300 C 233.848 272.649,233.624 271.728,233.401 270.600 C 233.110 269.125,232.854 268.033,231.200 261.200 C 230.481 258.230,229.737 255.125,229.546 254.300 C 229.356 253.475,229.028 252.125,228.818 251.300 C 228.608 250.475,228.329 249.260,228.199 248.600 C 228.069 247.940,227.797 246.770,227.596 246.000 C 227.394 245.230,226.965 243.430,226.641 242.000 C 225.289 236.027,223.960 230.521,223.593 229.372 C 223.377 228.696,223.200 227.809,223.200 227.400 C 223.200 226.991,223.023 226.104,222.807 225.428 C 222.590 224.753,222.045 222.580,221.595 220.600 C 221.145 218.620,220.387 215.424,219.910 213.498 C 218.754 208.822,218.373 209.055,227.719 208.748 C 238.954 208.380,241.088 207.540,243.173 202.667 C 246.007 196.042,241.774 190.196,233.600 189.444 C 228.491 188.974,226.800 188.693,226.800 188.311 C 226.800 188.004,230.667 183.263,231.621 182.400 C 231.743 182.290,234.688 178.870,238.166 174.800 C 241.644 170.730,244.874 166.950,245.345 166.400 C 245.815 165.850,247.190 164.230,248.400 162.800 C 249.610 161.370,250.769 160.078,250.976 159.929 C 251.490 159.559,251.955 155.036,251.979 150.154 C 252.003 145.467,252.642 146.631,245.410 138.176 C 242.765 135.083,240.060 131.909,239.400 131.122 C 235.847 126.889,224.933 114.057,218.913 107.034 L 212.025 99.000 212.113 87.400 L 212.200 75.800 224.200 75.600 L 236.200 75.400 236.200 61.400 L 236.200 47.400 224.106 47.294 L 212.011 47.188 211.906 34.694 L 211.800 22.200 198.172 22.095 C 190.676 22.037,184.421 22.112,184.272 22.262 " stroke="none" fill="#fbfbfb" fill-rule="evenodd"></path></g></svg>