<svg id="svg" version="1.1" xmlns="http://www.w3.org/2000/svg" xmlns:xlink="http://www.w3.org/1999/xlink" width="400" height="400" viewBox="0, 0, 400,400"><g id="svgg"><path id="path0" d="M72.476 34.165 C 70.078 35.473,68.965 36.612,67.802 38.946 L 66.800 40.957 66.800 87.611 L 66.800 134.264 67.737 136.115 C 69.026 138.661,69.371 139.015,71.711 140.181 L 73.757 141.200 100.279 141.200 L 126.800 141.200 126.800 147.988 C 126.800 154.034,126.713 154.931,126.000 156.200 C 125.295 157.456,125.200 158.369,125.198 163.912 C 125.196 168.993,125.069 170.430,124.537 171.400 C 124.052 172.284,123.810 174.162,123.621 178.526 C 123.452 182.416,123.200 184.553,122.889 184.745 C 122.561 184.948,122.334 187.582,122.157 193.219 C 121.989 198.584,121.720 201.813,121.374 202.600 C 120.839 203.820,120.221 212.491,119.676 226.400 C 119.447 232.261,119.243 234.066,118.693 235.080 C 118.113 236.153,118.000 237.470,118.000 243.196 C 118.000 249.242,117.908 250.213,117.200 251.600 C 116.492 252.988,116.400 253.960,116.398 260.084 C 116.395 265.850,116.282 267.200,115.716 268.200 C 115.164 269.174,114.995 270.892,114.818 277.315 C 114.647 283.524,114.478 285.305,114.035 285.579 C 113.605 285.844,113.407 287.488,113.204 292.490 C 113.058 296.099,112.826 299.234,112.688 299.457 C 112.551 299.680,112.247 302.278,112.013 305.231 C 111.779 308.184,111.493 311.185,111.376 311.900 L 111.164 313.200 84.260 313.200 L 57.357 313.200 55.280 314.235 C 53.200 315.272,45.541 322.605,45.271 323.819 C 45.200 324.138,44.975 324.400,44.771 324.400 C 44.567 324.400,44.400 324.760,44.400 325.200 C 44.400 325.640,44.220 326.000,44.000 326.000 C 43.780 326.000,43.600 326.360,43.600 326.800 C 43.600 327.240,43.420 327.600,43.200 327.600 C 42.938 327.600,42.812 335.009,42.836 349.100 L 42.872 370.600 43.948 372.588 C 44.754 374.077,45.523 374.846,47.012 375.652 L 49.000 376.728 190.621 376.764 L 332.243 376.800 334.254 375.798 C 336.669 374.595,337.756 373.496,339.036 370.968 L 340.000 369.064 340.000 353.366 C 340.000 341.860,339.877 337.626,339.538 337.513 C 339.261 337.420,339.000 336.027,338.883 334.015 C 338.683 330.562,337.017 326.396,334.919 324.106 C 334.655 323.817,333.625 322.550,332.630 321.291 C 330.331 318.377,327.419 315.883,324.562 314.380 L 322.319 313.200 294.159 313.200 L 266.000 313.200 266.000 307.412 C 266.000 302.411,265.894 301.435,265.218 300.233 C 264.556 299.053,264.408 297.820,264.249 292.121 C 263.917 280.264,263.221 270.281,262.623 268.800 C 262.237 267.844,261.982 264.869,261.819 259.417 C 261.659 254.076,261.428 251.341,261.120 251.151 C 260.821 250.966,260.537 248.170,260.305 243.142 C 260.075 238.121,259.790 235.317,259.492 235.133 C 259.200 234.953,258.954 232.818,258.816 229.286 C 258.660 225.271,258.438 223.528,258.019 223.023 C 257.574 222.487,257.400 220.633,257.274 215.062 C 257.172 210.553,256.940 207.591,256.663 207.248 C 256.385 206.905,256.137 203.715,256.008 198.809 C 255.877 193.850,255.632 190.714,255.348 190.361 C 255.059 190.002,254.830 186.794,254.712 181.463 C 254.568 174.917,254.408 173.052,253.970 172.782 C 253.535 172.513,253.360 170.582,253.172 163.983 C 252.982 157.322,252.811 155.454,252.366 155.179 C 251.927 154.909,251.769 153.429,251.664 148.615 L 251.528 142.400 254.464 142.386 C 256.251 142.377,257.791 142.148,258.400 141.800 C 259.236 141.322,263.351 141.226,283.421 141.214 L 307.443 141.200 309.519 140.166 C 311.661 139.098,312.749 137.885,314.300 134.835 L 315.200 133.064 315.200 87.609 L 315.200 42.154 313.859 39.490 C 312.109 36.010,311.864 35.745,309.135 34.367 L 306.823 33.200 280.252 33.200 L 253.681 33.200 251.350 34.426 C 248.306 36.028,248.214 36.114,247.019 38.511 L 246.000 40.557 246.000 59.479 L 246.000 78.400 237.200 78.400 L 228.400 78.400 228.364 59.100 L 228.328 39.800 227.252 37.800 C 226.397 36.210,225.687 35.530,223.789 34.482 L 221.400 33.163 211.263 33.318 C 203.095 33.442,201.059 33.582,200.778 34.036 C 200.490 34.503,197.285 34.635,182.115 34.803 L 163.800 35.005 161.865 36.066 C 159.178 37.539,158.103 38.638,156.760 41.289 L 155.600 43.577 155.600 59.589 L 155.600 75.600 147.600 75.600 L 139.600 75.600 139.564 59.100 L 139.528 42.600 138.452 40.612 C 137.411 38.686,134.513 36.544,132.800 36.434 C 132.470 36.412,131.660 36.099,131.000 35.738 C 130.074 35.231,128.174 35.024,122.680 34.832 C 117.238 34.641,115.479 34.451,115.216 34.026 C 114.932 33.566,111.374 33.449,94.536 33.347 L 74.200 33.224 72.476 34.165 M218.957 43.433 C 219.091 43.781,219.200 53.645,219.200 65.353 C 219.200 81.376,219.319 86.759,219.680 87.120 C 220.420 87.860,254.132 87.805,254.747 87.063 C 255.059 86.688,255.224 80.185,255.296 65.375 L 255.400 44.224 256.400 43.718 C 258.064 42.876,303.724 42.981,304.571 43.829 C 305.421 44.679,305.545 130.816,304.697 131.519 C 304.365 131.795,294.928 132.007,276.797 132.145 C 249.874 132.349,242.296 132.702,241.259 133.800 C 240.820 134.264,241.342 146.195,241.950 149.600 C 242.166 150.810,242.452 153.870,242.584 156.400 C 242.717 158.930,243.082 163.520,243.395 166.600 C 244.510 177.572,245.195 185.055,245.428 188.800 C 245.558 190.890,245.920 194.423,246.232 196.651 C 246.544 198.880,246.806 202.390,246.814 204.451 C 246.822 206.513,247.098 209.640,247.428 211.400 C 247.759 213.160,248.191 217.660,248.390 221.400 C 248.589 225.140,248.940 228.920,249.170 229.800 C 249.400 230.680,249.701 234.100,249.838 237.400 C 249.976 240.700,250.255 244.120,250.459 245.000 C 250.663 245.880,251.085 250.020,251.396 254.200 C 251.708 258.380,252.141 263.150,252.359 264.800 C 252.578 266.450,252.957 270.230,253.201 273.200 C 253.958 282.387,254.774 290.873,255.183 293.800 C 255.398 295.340,255.579 297.860,255.586 299.400 C 255.593 300.940,255.869 303.730,256.199 305.600 C 256.529 307.470,256.946 311.340,257.125 314.200 C 257.318 317.271,257.689 319.891,258.031 320.600 L 258.611 321.800 288.605 322.000 C 310.637 322.147,318.819 322.326,319.423 322.673 C 322.173 324.253,328.212 331.445,329.106 334.204 C 330.176 337.507,330.536 366.104,329.520 367.120 C 328.541 368.099,52.126 367.783,51.602 366.803 C 51.314 366.265,51.212 360.514,51.288 349.092 L 51.400 332.179 52.999 330.189 C 53.879 329.095,56.070 326.805,57.868 325.100 L 61.138 322.000 90.379 322.000 L 119.620 322.000 120.047 320.900 C 120.283 320.295,120.713 316.882,121.004 313.316 C 121.295 309.749,121.672 306.608,121.840 306.334 C 122.009 306.061,122.284 302.949,122.450 299.419 C 122.617 295.888,123.031 291.830,123.371 290.400 C 123.732 288.880,123.991 285.952,123.994 283.352 C 123.997 280.906,124.281 277.306,124.625 275.352 C 124.969 273.399,125.407 268.786,125.600 265.102 C 125.792 261.419,126.067 258.215,126.211 257.982 C 126.355 257.749,126.626 255.183,126.814 252.279 C 127.129 247.414,127.846 239.455,128.821 230.000 C 129.037 227.910,129.397 223.590,129.621 220.400 C 129.846 217.210,130.202 213.700,130.413 212.600 C 130.623 211.500,130.974 207.450,131.192 203.600 C 131.410 199.750,131.762 196.000,131.975 195.267 C 132.188 194.534,132.475 191.204,132.611 187.867 C 132.748 184.530,133.103 180.450,133.401 178.800 C 133.699 177.150,134.053 173.370,134.187 170.400 C 134.321 167.430,134.684 163.470,134.993 161.600 C 135.302 159.730,135.650 156.130,135.765 153.600 C 135.880 151.070,136.249 147.200,136.585 145.000 C 136.921 142.800,137.204 140.010,137.215 138.800 C 137.226 137.590,137.391 135.790,137.583 134.800 C 138.163 131.795,140.394 132.000,107.180 132.000 C 80.511 132.000,77.189 131.932,76.629 131.371 C 75.723 130.466,75.663 45.415,76.567 44.176 C 77.479 42.927,115.150 43.158,120.770 44.448 C 121.777 44.679,124.116 45.010,125.969 45.184 C 130.770 45.635,130.400 44.103,130.400 63.522 C 130.400 85.130,130.051 84.357,140.200 85.204 C 146.203 85.705,164.272 85.612,165.100 85.076 C 165.488 84.825,165.600 80.536,165.600 65.865 C 165.600 42.574,164.490 45.207,174.323 45.178 C 178.435 45.165,183.690 44.992,186.000 44.793 C 188.310 44.595,194.340 44.232,199.400 43.988 C 204.460 43.744,209.950 43.401,211.600 43.225 C 216.804 42.672,218.686 42.725,218.957 43.433 " stroke="none" fill="#070707" fill-rule="evenodd"></path><path id="path1" d="M211.600 43.225 C 209.950 43.401,204.460 43.744,199.400 43.988 C 194.340 44.232,188.310 44.595,186.000 44.793 C 183.690 44.992,178.435 45.165,174.323 45.178 C 164.490 45.207,165.600 42.574,165.600 65.865 C 165.600 80.536,165.488 84.825,165.100 85.076 C 164.272 85.612,146.203 85.705,140.200 85.204 C 130.051 84.357,130.400 85.130,130.400 63.522 C 130.400 44.103,130.770 45.635,125.969 45.184 C 124.116 45.010,121.777 44.679,120.770 44.448 C 115.150 43.158,77.479 42.927,76.567 44.176 C 75.663 45.415,75.723 130.466,76.629 131.371 C 77.189 131.932,80.511 132.000,107.180 132.000 C 140.394 132.000,138.163 131.795,137.583 134.800 C 137.391 135.790,137.226 137.590,137.215 138.800 C 137.204 140.010,136.921 142.800,136.585 145.000 C 136.249 147.200,135.880 151.070,135.765 153.600 C 135.650 156.130,135.302 159.730,134.993 161.600 C 134.684 163.470,134.321 167.430,134.187 170.400 C 134.053 173.370,133.699 177.150,133.401 178.800 C 133.103 180.450,132.748 184.530,132.611 187.867 C 132.475 191.204,132.188 194.534,131.975 195.267 C 131.762 196.000,131.410 199.750,131.192 203.600 C 130.974 207.450,130.623 211.500,130.413 212.600 C 130.202 213.700,129.846 217.210,129.621 220.400 C 129.397 223.590,129.037 227.910,128.821 230.000 C 127.846 239.455,127.129 247.414,126.814 252.279 C 126.626 255.183,126.355 257.749,126.211 257.982 C 126.067 258.215,125.792 261.419,125.600 265.102 C 125.407 268.786,124.969 273.399,124.625 275.352 C 124.281 277.306,123.997 280.906,123.994 283.352 C 123.991 285.952,123.732 288.880,123.371 290.400 C 123.031 291.830,122.617 295.888,122.450 299.419 C 122.284 302.949,122.009 306.061,121.840 306.334 C 121.672 306.608,121.295 309.749,121.004 313.316 C 120.713 316.882,120.283 320.295,120.047 320.900 L 119.620 322.000 90.379 322.000 L 61.138 322.000 57.868 325.100 C 56.070 326.805,53.879 329.095,52.999 330.189 L 51.400 332.179 51.288 349.092 C 51.212 360.514,51.314 366.265,51.602 366.803 C 52.126 367.783,328.541 368.099,329.520 367.120 C 330.536 366.104,330.176 337.507,329.106 334.204 C 328.212 331.445,322.173 324.253,319.423 322.673 C 318.819 322.326,310.637 322.147,288.605 322.000 L 258.611 321.800 258.031 320.600 C 257.689 319.891,257.318 317.271,257.125 314.200 C 256.946 311.340,256.529 307.470,256.199 305.600 C 255.869 303.730,255.593 300.940,255.586 299.400 C 255.579 297.860,255.398 295.340,255.183 293.800 C 254.774 290.873,253.958 282.387,253.201 273.200 C 252.957 270.230,252.578 266.450,252.359 264.800 C 252.141 263.150,251.708 258.380,251.396 254.200 C 251.085 250.020,250.663 245.880,250.459 245.000 C 250.255 244.120,249.976 240.700,249.838 237.400 C 249.701 234.100,249.400 230.680,249.170 229.800 C 248.940 228.920,248.589 225.140,248.390 221.400 C 248.191 217.660,247.759 213.160,247.428 211.400 C 247.098 209.640,246.822 206.513,246.814 204.451 C 246.806 202.390,246.544 198.880,246.232 196.651 C 245.920 194.423,245.558 190.890,245.428 188.800 C 245.195 185.055,244.510 177.572,243.395 166.600 C 243.082 163.520,242.717 158.930,242.584 156.400 C 242.452 153.870,242.166 150.810,241.950 149.600 C 241.342 146.195,240.820 134.264,241.259 133.800 C 242.296 132.702,249.874 132.349,276.797 132.145 C 294.928 132.007,304.365 131.795,304.697 131.519 C 305.545 130.816,305.421 44.679,304.571 43.829 C 303.724 42.981,258.064 42.876,256.400 43.718 L 255.400 44.224 255.296 65.375 C 255.224 80.185,255.059 86.688,254.747 87.063 C 254.132 87.805,220.420 87.860,219.680 87.120 C 219.319 86.759,219.200 81.376,219.200 65.353 C 219.200 53.645,219.091 43.781,218.957 43.433 C 218.686 42.725,216.804 42.672,211.600 43.225 " stroke="none" fill="#fbfbfb" fill-rule="evenodd"></path></g></svg>