<svg id="svg" version="1.1" xmlns="http://www.w3.org/2000/svg" xmlns:xlink="http://www.w3.org/1999/xlink" width="400" height="400" viewBox="0, 0, 400,400"><g id="svgg"><path id="path0" d="M194.400 47.704 C 190.300 49.730,187.753 52.132,186.241 55.400 C 185.630 56.720,184.930 58.160,184.684 58.600 C 184.433 59.051,184.209 61.628,184.172 64.510 C 184.121 68.379,183.961 69.788,183.511 70.310 C 181.595 72.535,176.862 81.122,175.194 85.400 C 175.022 85.840,174.607 86.830,174.271 87.600 C 173.226 90.000,172.412 92.563,172.406 93.476 C 172.403 93.958,172.239 94.452,172.042 94.574 C 171.845 94.695,171.593 95.471,171.481 96.297 C 171.370 97.124,170.924 99.510,170.492 101.600 C 170.059 103.690,169.503 106.840,169.256 108.600 C 169.010 110.360,168.611 113.150,168.370 114.800 C 166.655 126.564,167.828 149.427,170.832 162.800 C 171.892 167.519,171.902 167.600,171.402 167.600 C 170.399 167.600,164.816 170.757,163.523 172.056 C 160.283 175.310,158.659 181.885,160.041 186.158 C 161.337 190.162,164.684 194.800,166.278 194.800 C 166.565 194.800,166.800 194.980,166.800 195.200 C 166.800 195.420,167.160 195.600,167.600 195.600 C 168.040 195.600,168.400 195.780,168.400 196.000 C 168.400 196.220,168.760 196.400,169.200 196.400 C 169.640 196.400,170.000 196.580,170.000 196.800 C 170.000 197.020,170.439 197.200,170.976 197.200 C 171.513 197.200,172.064 197.380,172.200 197.600 C 172.336 197.820,172.818 198.000,173.270 198.000 C 173.943 198.000,174.040 198.165,173.805 198.900 C 173.646 199.395,173.425 200.387,173.314 201.104 C 173.203 201.821,172.951 202.506,172.756 202.627 C 172.560 202.748,172.400 203.379,172.400 204.029 C 172.400 204.679,172.229 205.523,172.020 205.905 C 171.811 206.287,171.379 207.680,171.061 209.000 C 170.561 211.069,169.949 213.346,168.371 219.000 C 168.187 219.660,167.505 222.180,166.855 224.600 C 165.452 229.825,164.136 234.642,163.358 237.400 C 163.048 238.500,162.354 241.020,161.817 243.000 C 159.136 252.873,157.842 257.581,157.309 259.400 C 156.987 260.500,156.574 262.030,156.391 262.800 C 156.209 263.570,155.579 265.910,154.991 268.000 C 153.383 273.720,151.990 278.879,151.752 280.000 C 151.635 280.550,151.385 281.360,151.196 281.800 C 151.006 282.240,150.563 283.770,150.212 285.200 C 149.614 287.631,149.018 289.834,145.942 301.000 C 145.276 303.420,144.413 306.570,144.025 308.000 C 141.301 318.039,140.988 318.800,139.591 318.800 C 139.156 318.800,138.800 318.980,138.800 319.200 C 138.800 319.420,138.440 319.600,138.000 319.600 C 137.560 319.600,137.200 319.780,137.200 320.000 C 137.200 320.220,136.840 320.400,136.400 320.400 C 135.960 320.400,135.600 320.580,135.600 320.800 C 135.600 321.020,135.325 321.200,134.989 321.200 C 133.017 321.200,128.151 328.922,127.226 333.520 C 126.992 334.686,126.805 339.996,126.811 345.320 L 126.822 355.000 128.111 357.389 C 129.145 359.305,129.795 359.990,131.400 360.852 L 133.400 361.928 202.232 361.964 L 271.064 362.000 272.915 361.063 C 275.477 359.766,275.839 359.409,277.005 357.025 L 278.029 354.932 277.852 345.766 C 277.666 336.195,277.375 332.460,276.763 331.820 C 276.563 331.611,276.400 330.936,276.400 330.320 C 276.400 329.704,276.220 329.200,276.000 329.200 C 275.780 329.200,275.600 328.840,275.600 328.400 C 275.600 327.960,275.420 327.600,275.200 327.600 C 274.980 327.600,274.800 327.240,274.800 326.800 C 274.800 326.360,274.620 326.000,274.400 326.000 C 274.180 326.000,274.000 325.725,274.000 325.389 C 274.000 324.596,270.604 321.200,269.811 321.200 C 269.475 321.200,269.200 321.020,269.200 320.800 C 269.200 320.580,268.840 320.400,268.400 320.400 C 267.960 320.400,267.600 320.220,267.600 320.000 C 267.600 319.780,267.240 319.600,266.800 319.600 C 266.360 319.600,266.000 319.432,266.000 319.227 C 266.000 319.021,265.505 318.796,264.900 318.727 C 264.009 318.624,263.775 318.372,263.669 317.400 C 263.597 316.740,263.372 316.029,263.169 315.820 C 262.966 315.611,262.800 315.037,262.800 314.544 C 262.800 314.051,262.620 313.536,262.400 313.400 C 262.180 313.264,262.000 312.724,262.000 312.200 C 262.000 311.676,261.820 311.136,261.600 311.000 C 261.380 310.864,261.200 310.324,261.200 309.800 C 261.200 309.276,261.020 308.736,260.800 308.600 C 260.580 308.464,260.400 307.823,260.400 307.176 C 260.400 306.529,260.220 306.000,260.000 306.000 C 259.780 306.000,259.600 305.381,259.600 304.624 C 259.600 303.867,259.420 303.136,259.200 303.000 C 258.980 302.864,258.800 302.223,258.800 301.576 C 258.800 300.929,258.620 300.400,258.400 300.400 C 258.180 300.400,258.000 299.781,258.000 299.024 C 258.000 298.267,257.820 297.536,257.600 297.400 C 257.380 297.264,257.200 296.623,257.200 295.976 C 257.200 295.329,257.020 294.800,256.800 294.800 C 256.580 294.800,256.400 294.271,256.400 293.624 C 256.400 292.977,256.220 292.336,256.000 292.200 C 255.780 292.064,255.600 291.434,255.600 290.800 C 255.600 290.166,255.420 289.536,255.200 289.400 C 254.980 289.264,254.800 288.623,254.800 287.976 C 254.800 287.329,254.620 286.800,254.400 286.800 C 254.180 286.800,254.000 286.181,254.000 285.424 C 254.000 284.667,253.820 283.936,253.600 283.800 C 253.380 283.664,253.200 283.023,253.200 282.376 C 253.200 281.729,253.020 281.200,252.800 281.200 C 252.580 281.200,252.400 280.581,252.400 279.824 C 252.400 279.067,252.220 278.336,252.000 278.200 C 251.780 278.064,251.600 277.434,251.600 276.800 C 251.600 276.166,251.420 275.536,251.200 275.400 C 250.980 275.264,250.800 274.724,250.800 274.200 C 250.800 273.676,250.620 273.136,250.400 273.000 C 250.180 272.864,250.000 272.234,250.000 271.600 C 250.000 270.966,249.820 270.336,249.600 270.200 C 249.380 270.064,249.200 269.423,249.200 268.776 C 249.200 268.129,249.020 267.600,248.800 267.600 C 248.580 267.600,248.400 266.880,248.400 266.000 C 248.400 265.120,248.220 264.400,248.000 264.400 C 247.780 264.400,247.600 263.781,247.600 263.024 C 247.600 262.267,247.420 261.536,247.200 261.400 C 246.980 261.264,246.800 260.623,246.800 259.976 C 246.800 259.329,246.620 258.800,246.400 258.800 C 246.180 258.800,246.000 258.181,246.000 257.424 C 246.000 256.667,245.820 255.936,245.600 255.800 C 245.380 255.664,245.200 255.124,245.200 254.600 C 245.200 254.076,245.020 253.536,244.800 253.400 C 244.580 253.264,244.400 252.623,244.400 251.976 C 244.400 251.329,244.220 250.800,244.000 250.800 C 243.780 250.800,243.600 250.080,243.600 249.200 C 243.600 248.320,243.420 247.600,243.200 247.600 C 242.980 247.600,242.800 246.981,242.800 246.224 C 242.800 245.467,242.620 244.736,242.400 244.600 C 242.180 244.464,242.000 243.823,242.000 243.176 C 242.000 242.529,241.820 242.000,241.600 242.000 C 241.380 242.000,241.200 241.381,241.200 240.624 C 241.200 239.867,241.020 239.136,240.800 239.000 C 240.580 238.864,240.400 238.234,240.400 237.600 C 240.400 236.966,240.220 236.336,240.000 236.200 C 239.780 236.064,239.600 235.524,239.600 235.000 C 239.600 234.476,239.420 233.936,239.200 233.800 C 238.980 233.664,238.800 232.933,238.800 232.176 C 238.800 231.419,238.620 230.800,238.400 230.800 C 238.180 230.800,238.000 230.181,238.000 229.424 C 238.000 228.667,237.820 227.936,237.600 227.800 C 237.380 227.664,237.200 227.023,237.200 226.376 C 237.200 225.729,237.020 225.200,236.800 225.200 C 236.580 225.200,236.400 224.581,236.400 223.824 C 236.400 223.067,236.220 222.336,236.000 222.200 C 235.780 222.064,235.600 221.434,235.600 220.800 C 235.600 220.166,235.420 219.536,235.200 219.400 C 234.980 219.264,234.800 218.634,234.800 218.000 C 234.800 217.366,234.620 216.736,234.400 216.600 C 234.180 216.464,234.000 215.823,234.000 215.176 C 234.000 214.529,233.820 214.000,233.600 214.000 C 233.380 214.000,233.200 213.471,233.200 212.824 C 233.200 212.177,233.020 211.536,232.800 211.400 C 232.580 211.264,232.400 210.533,232.400 209.776 C 232.400 209.019,232.220 208.400,232.000 208.400 C 231.780 208.400,231.600 207.781,231.600 207.024 C 231.600 206.267,231.420 205.536,231.200 205.400 C 230.980 205.264,230.800 204.634,230.800 204.000 C 230.800 203.366,230.620 202.736,230.400 202.600 C 230.180 202.464,230.000 201.834,230.000 201.200 C 230.000 200.566,229.820 199.936,229.600 199.800 C 228.211 198.941,229.244 198.000,231.576 198.000 C 232.883 198.000,234.064 197.820,234.200 197.600 C 234.336 197.380,234.771 197.200,235.167 197.200 C 236.450 197.200,240.956 194.662,242.609 193.009 C 251.393 184.226,245.752 168.593,233.191 166.908 C 231.818 166.724,230.869 166.000,232.000 166.000 C 232.220 166.000,232.400 165.280,232.400 164.400 C 232.400 163.520,232.580 162.800,232.800 162.800 C 233.020 162.800,233.200 162.026,233.200 161.080 C 233.200 160.134,233.363 159.189,233.561 158.980 C 233.941 158.580,234.291 156.334,234.650 152.000 C 234.768 150.570,235.030 149.229,235.232 149.020 C 235.435 148.811,235.600 146.372,235.600 143.600 C 235.600 140.643,235.772 138.388,236.016 138.144 C 236.707 137.453,235.912 112.566,235.175 111.820 C 234.969 111.611,234.800 110.317,234.800 108.944 C 234.800 107.571,234.620 106.336,234.400 106.200 C 234.180 106.064,234.000 105.274,234.000 104.444 C 234.000 102.005,231.173 97.200,229.737 97.200 C 229.357 97.200,229.431 96.814,230.007 95.788 C 231.273 93.533,231.103 89.858,229.600 87.000 C 228.940 85.745,228.400 84.467,228.400 84.159 C 228.400 83.852,228.220 83.600,228.000 83.600 C 227.780 83.600,227.600 83.240,227.600 82.800 C 227.600 82.360,227.420 82.000,227.200 82.000 C 226.980 82.000,226.800 81.640,226.800 81.200 C 226.800 80.760,226.620 80.400,226.400 80.400 C 226.180 80.400,226.000 80.040,226.000 79.600 C 226.000 79.160,225.820 78.800,225.600 78.800 C 225.380 78.800,225.200 78.440,225.200 78.000 C 225.200 77.560,225.041 77.200,224.847 77.200 C 224.652 77.200,224.393 76.885,224.271 76.500 C 223.983 75.591,222.788 73.647,221.900 72.642 C 221.291 71.952,221.200 70.951,221.200 64.925 C 221.200 60.575,221.051 58.000,220.800 58.000 C 220.580 58.000,220.400 57.640,220.400 57.200 C 220.400 56.760,220.220 56.400,220.000 56.400 C 219.780 56.400,219.600 56.040,219.600 55.600 C 219.600 55.160,219.420 54.800,219.200 54.800 C 218.980 54.800,218.800 54.515,218.800 54.166 C 218.800 53.013,214.859 49.347,212.280 48.101 C 208.094 46.079,207.730 46.000,202.681 46.012 L 197.800 46.024 194.400 47.704 M206.561 56.020 C 211.979 58.047,213.982 64.055,211.200 69.936 C 209.700 73.106,209.646 72.705,211.947 75.465 C 215.600 79.845,221.200 89.846,221.200 91.989 C 221.200 92.420,218.739 96.963,215.732 102.086 C 202.528 124.576,203.689 121.620,206.338 126.000 C 208.673 129.860,208.658 129.873,214.876 118.800 C 223.212 103.956,224.449 102.710,225.276 108.326 C 228.611 130.985,227.017 153.594,220.932 169.934 C 220.167 171.987,219.510 174.147,219.471 174.734 L 219.400 175.800 225.800 176.000 C 234.388 176.268,237.600 177.911,237.600 182.034 C 237.600 186.803,233.993 188.770,225.200 188.795 C 218.788 188.813,217.200 189.064,217.200 190.061 C 217.200 190.667,228.944 232.522,230.371 237.000 C 230.693 238.011,233.736 248.741,235.249 254.200 C 235.493 255.080,235.844 256.250,236.029 256.800 C 236.415 257.950,238.479 265.151,239.354 268.400 C 239.680 269.610,241.774 276.900,244.007 284.600 C 255.955 325.791,256.069 326.117,258.728 326.542 C 263.208 327.259,266.672 330.262,267.854 334.458 C 268.762 337.680,269.121 352.036,268.310 352.709 C 267.842 353.097,253.656 353.181,201.958 353.101 L 136.200 353.000 136.200 344.600 C 136.200 334.683,136.648 332.593,139.378 329.780 C 141.011 328.097,144.623 326.400,146.571 326.400 C 147.917 326.400,149.184 325.223,149.585 323.600 C 149.775 322.830,150.203 321.210,150.536 320.000 C 150.869 318.790,151.629 316.000,152.226 313.800 C 152.822 311.600,153.661 308.540,154.091 307.000 C 154.521 305.460,155.048 303.570,155.263 302.800 C 155.477 302.030,155.803 300.770,155.986 300.000 C 156.170 299.230,156.698 297.250,157.161 295.600 C 157.623 293.950,158.377 291.250,158.836 289.600 C 159.296 287.950,159.847 285.970,160.062 285.200 C 160.277 284.430,160.609 283.170,160.800 282.400 C 160.991 281.630,161.323 280.370,161.537 279.600 C 161.752 278.830,162.304 276.850,162.764 275.200 C 164.627 268.523,165.299 266.072,166.000 263.400 C 166.404 261.860,167.109 259.250,167.568 257.600 C 169.697 249.937,170.113 248.418,170.801 245.800 C 171.206 244.260,171.808 242.010,172.139 240.800 C 172.471 239.590,173.229 236.800,173.826 234.600 C 174.422 232.400,175.259 229.340,175.688 227.800 C 176.116 226.260,176.797 223.740,177.201 222.200 C 177.606 220.660,178.221 218.365,178.569 217.100 C 179.517 213.644,180.423 210.367,180.861 208.800 C 181.077 208.030,181.407 206.770,181.595 206.000 C 181.956 204.522,182.868 201.076,184.560 194.800 C 185.706 190.550,185.835 189.209,185.100 189.181 C 174.840 188.795,172.384 188.166,170.039 185.320 C 166.063 180.498,170.943 176.000,180.152 176.000 C 182.462 176.000,184.445 175.850,184.558 175.667 C 184.730 175.389,183.212 170.697,182.012 167.800 C 180.791 164.851,178.726 155.906,178.042 150.600 C 177.815 148.840,177.441 145.960,177.212 144.200 C 174.028 119.771,180.903 87.677,191.927 75.513 C 194.950 72.177,195.027 71.898,193.806 68.656 C 190.657 60.290,198.146 52.871,206.561 56.020 " stroke="none" fill="#070707" fill-rule="evenodd"></path><path id="path1" d="M199.781 55.730 C 193.959 57.974,191.659 62.950,193.806 68.656 C 195.027 71.898,194.950 72.177,191.927 75.513 C 184.059 84.195,179.456 97.680,177.220 118.600 C 176.673 123.717,176.668 140.026,177.212 144.200 C 177.441 145.960,177.815 148.840,178.042 150.600 C 178.726 155.906,180.791 164.851,182.012 167.800 C 183.212 170.697,184.730 175.389,184.558 175.667 C 184.445 175.850,182.462 176.000,180.152 176.000 C 170.943 176.000,166.063 180.498,170.039 185.320 C 172.384 188.166,174.840 188.795,185.100 189.181 C 185.835 189.209,185.706 190.550,184.560 194.800 C 182.868 201.076,181.956 204.522,181.595 206.000 C 181.407 206.770,181.077 208.030,180.861 208.800 C 180.423 210.367,179.517 213.644,178.569 217.100 C 178.221 218.365,177.606 220.660,177.201 222.200 C 176.797 223.740,176.116 226.260,175.688 227.800 C 175.259 229.340,174.422 232.400,173.826 234.600 C 173.229 236.800,172.471 239.590,172.139 240.800 C 171.808 242.010,171.206 244.260,170.801 245.800 C 170.113 248.418,169.697 249.937,167.568 257.600 C 167.109 259.250,166.404 261.860,166.000 263.400 C 165.299 266.072,164.627 268.523,162.764 275.200 C 162.304 276.850,161.752 278.830,161.537 279.600 C 161.323 280.370,160.991 281.630,160.800 282.400 C 160.609 283.170,160.277 284.430,160.062 285.200 C 159.847 285.970,159.296 287.950,158.836 289.600 C 158.377 291.250,157.623 293.950,157.161 295.600 C 156.698 297.250,156.170 299.230,155.986 300.000 C 155.803 300.770,155.477 302.030,155.263 302.800 C 155.048 303.570,154.521 305.460,154.091 307.000 C 153.661 308.540,152.822 311.600,152.226 313.800 C 151.629 316.000,150.869 318.790,150.536 320.000 C 150.203 321.210,149.775 322.830,149.585 323.600 C 149.184 325.223,147.917 326.400,146.571 326.400 C 144.623 326.400,141.011 328.097,139.378 329.780 C 136.648 332.593,136.200 334.683,136.200 344.600 L 136.200 353.000 201.958 353.101 C 253.656 353.181,267.842 353.097,268.310 352.709 C 269.121 352.036,268.762 337.680,267.854 334.458 C 266.672 330.262,263.208 327.259,258.728 326.542 C 256.069 326.117,255.955 325.791,244.007 284.600 C 241.774 276.900,239.680 269.610,239.354 268.400 C 238.479 265.151,236.415 257.950,236.029 256.800 C 235.844 256.250,235.493 255.080,235.249 254.200 C 233.736 248.741,230.693 238.011,230.371 237.000 C 228.944 232.522,217.200 190.667,217.200 190.061 C 217.200 189.064,218.788 188.813,225.200 188.795 C 233.993 188.770,237.600 186.803,237.600 182.034 C 237.600 177.911,234.388 176.268,225.800 176.000 L 219.400 175.800 219.471 174.734 C 219.510 174.147,220.167 171.987,220.932 169.934 C 227.017 153.594,228.611 130.985,225.276 108.326 C 224.449 102.710,223.212 103.956,214.876 118.800 C 208.658 129.873,208.673 129.860,206.338 126.000 C 203.689 121.620,202.528 124.576,215.732 102.086 C 218.739 96.963,221.200 92.420,221.200 91.989 C 221.200 89.846,215.600 79.845,211.947 75.465 C 209.646 72.705,209.700 73.106,211.200 69.936 C 215.186 61.509,207.997 52.565,199.781 55.730 " stroke="none" fill="#fbfbfb" fill-rule="evenodd"></path></g></svg>